%TF.GenerationSoftware,KiCad,Pcbnew,9.0.7*%
%TF.CreationDate,2026-02-19T21:05:41-05:00*%
%TF.ProjectId,imu_esp_pcb,696d755f-6573-4705-9f70-63622e6b6963,rev?*%
%TF.SameCoordinates,Original*%
%TF.FileFunction,Legend,Top*%
%TF.FilePolarity,Positive*%
%FSLAX46Y46*%
G04 Gerber Fmt 4.6, Leading zero omitted, Abs format (unit mm)*
G04 Created by KiCad (PCBNEW 9.0.7) date 2026-02-19 21:05:41*
%MOMM*%
%LPD*%
G01*
G04 APERTURE LIST*
%ADD10C,0.150000*%
%ADD11C,0.152400*%
%ADD12C,0.120000*%
%ADD13C,0.000000*%
G04 APERTURE END LIST*
D10*
X84416904Y-84815180D02*
X84416904Y-84005657D01*
X84416904Y-84005657D02*
X84369285Y-83910419D01*
X84369285Y-83910419D02*
X84321666Y-83862800D01*
X84321666Y-83862800D02*
X84226428Y-83815180D01*
X84226428Y-83815180D02*
X84035952Y-83815180D01*
X84035952Y-83815180D02*
X83940714Y-83862800D01*
X83940714Y-83862800D02*
X83893095Y-83910419D01*
X83893095Y-83910419D02*
X83845476Y-84005657D01*
X83845476Y-84005657D02*
X83845476Y-84815180D01*
X82893095Y-84815180D02*
X83369285Y-84815180D01*
X83369285Y-84815180D02*
X83416904Y-84338990D01*
X83416904Y-84338990D02*
X83369285Y-84386609D01*
X83369285Y-84386609D02*
X83274047Y-84434228D01*
X83274047Y-84434228D02*
X83035952Y-84434228D01*
X83035952Y-84434228D02*
X82940714Y-84386609D01*
X82940714Y-84386609D02*
X82893095Y-84338990D01*
X82893095Y-84338990D02*
X82845476Y-84243752D01*
X82845476Y-84243752D02*
X82845476Y-84005657D01*
X82845476Y-84005657D02*
X82893095Y-83910419D01*
X82893095Y-83910419D02*
X82940714Y-83862800D01*
X82940714Y-83862800D02*
X83035952Y-83815180D01*
X83035952Y-83815180D02*
X83274047Y-83815180D01*
X83274047Y-83815180D02*
X83369285Y-83862800D01*
X83369285Y-83862800D02*
X83416904Y-83910419D01*
X86316600Y-83724819D02*
X86316600Y-83962914D01*
X86078505Y-83867676D02*
X86316600Y-83962914D01*
X86316600Y-83962914D02*
X86554695Y-83867676D01*
X86173743Y-84153390D02*
X86316600Y-83962914D01*
X86316600Y-83962914D02*
X86459457Y-84153390D01*
X86316599Y-84815180D02*
X86316599Y-84577085D01*
X86554694Y-84672323D02*
X86316599Y-84577085D01*
X86316599Y-84577085D02*
X86078504Y-84672323D01*
X86459456Y-84386609D02*
X86316599Y-84577085D01*
X86316599Y-84577085D02*
X86173742Y-84386609D01*
X94539580Y-84666666D02*
X94587200Y-84714285D01*
X94587200Y-84714285D02*
X94634819Y-84857142D01*
X94634819Y-84857142D02*
X94634819Y-84952380D01*
X94634819Y-84952380D02*
X94587200Y-85095237D01*
X94587200Y-85095237D02*
X94491961Y-85190475D01*
X94491961Y-85190475D02*
X94396723Y-85238094D01*
X94396723Y-85238094D02*
X94206247Y-85285713D01*
X94206247Y-85285713D02*
X94063390Y-85285713D01*
X94063390Y-85285713D02*
X93872914Y-85238094D01*
X93872914Y-85238094D02*
X93777676Y-85190475D01*
X93777676Y-85190475D02*
X93682438Y-85095237D01*
X93682438Y-85095237D02*
X93634819Y-84952380D01*
X93634819Y-84952380D02*
X93634819Y-84857142D01*
X93634819Y-84857142D02*
X93682438Y-84714285D01*
X93682438Y-84714285D02*
X93730057Y-84666666D01*
X93968152Y-83809523D02*
X94634819Y-83809523D01*
X93587200Y-84047618D02*
X94301485Y-84285713D01*
X94301485Y-84285713D02*
X94301485Y-83666666D01*
X96104819Y-71166666D02*
X95628628Y-71499999D01*
X96104819Y-71738094D02*
X95104819Y-71738094D01*
X95104819Y-71738094D02*
X95104819Y-71357142D01*
X95104819Y-71357142D02*
X95152438Y-71261904D01*
X95152438Y-71261904D02*
X95200057Y-71214285D01*
X95200057Y-71214285D02*
X95295295Y-71166666D01*
X95295295Y-71166666D02*
X95438152Y-71166666D01*
X95438152Y-71166666D02*
X95533390Y-71214285D01*
X95533390Y-71214285D02*
X95581009Y-71261904D01*
X95581009Y-71261904D02*
X95628628Y-71357142D01*
X95628628Y-71357142D02*
X95628628Y-71738094D01*
X95104819Y-70309523D02*
X95104819Y-70499999D01*
X95104819Y-70499999D02*
X95152438Y-70595237D01*
X95152438Y-70595237D02*
X95200057Y-70642856D01*
X95200057Y-70642856D02*
X95342914Y-70738094D01*
X95342914Y-70738094D02*
X95533390Y-70785713D01*
X95533390Y-70785713D02*
X95914342Y-70785713D01*
X95914342Y-70785713D02*
X96009580Y-70738094D01*
X96009580Y-70738094D02*
X96057200Y-70690475D01*
X96057200Y-70690475D02*
X96104819Y-70595237D01*
X96104819Y-70595237D02*
X96104819Y-70404761D01*
X96104819Y-70404761D02*
X96057200Y-70309523D01*
X96057200Y-70309523D02*
X96009580Y-70261904D01*
X96009580Y-70261904D02*
X95914342Y-70214285D01*
X95914342Y-70214285D02*
X95676247Y-70214285D01*
X95676247Y-70214285D02*
X95581009Y-70261904D01*
X95581009Y-70261904D02*
X95533390Y-70309523D01*
X95533390Y-70309523D02*
X95485771Y-70404761D01*
X95485771Y-70404761D02*
X95485771Y-70595237D01*
X95485771Y-70595237D02*
X95533390Y-70690475D01*
X95533390Y-70690475D02*
X95581009Y-70738094D01*
X95581009Y-70738094D02*
X95676247Y-70785713D01*
X94833333Y-89304819D02*
X94500000Y-88828628D01*
X94261905Y-89304819D02*
X94261905Y-88304819D01*
X94261905Y-88304819D02*
X94642857Y-88304819D01*
X94642857Y-88304819D02*
X94738095Y-88352438D01*
X94738095Y-88352438D02*
X94785714Y-88400057D01*
X94785714Y-88400057D02*
X94833333Y-88495295D01*
X94833333Y-88495295D02*
X94833333Y-88638152D01*
X94833333Y-88638152D02*
X94785714Y-88733390D01*
X94785714Y-88733390D02*
X94738095Y-88781009D01*
X94738095Y-88781009D02*
X94642857Y-88828628D01*
X94642857Y-88828628D02*
X94261905Y-88828628D01*
X95738095Y-88304819D02*
X95261905Y-88304819D01*
X95261905Y-88304819D02*
X95214286Y-88781009D01*
X95214286Y-88781009D02*
X95261905Y-88733390D01*
X95261905Y-88733390D02*
X95357143Y-88685771D01*
X95357143Y-88685771D02*
X95595238Y-88685771D01*
X95595238Y-88685771D02*
X95690476Y-88733390D01*
X95690476Y-88733390D02*
X95738095Y-88781009D01*
X95738095Y-88781009D02*
X95785714Y-88876247D01*
X95785714Y-88876247D02*
X95785714Y-89114342D01*
X95785714Y-89114342D02*
X95738095Y-89209580D01*
X95738095Y-89209580D02*
X95690476Y-89257200D01*
X95690476Y-89257200D02*
X95595238Y-89304819D01*
X95595238Y-89304819D02*
X95357143Y-89304819D01*
X95357143Y-89304819D02*
X95261905Y-89257200D01*
X95261905Y-89257200D02*
X95214286Y-89209580D01*
X103304819Y-87166666D02*
X102828628Y-87499999D01*
X103304819Y-87738094D02*
X102304819Y-87738094D01*
X102304819Y-87738094D02*
X102304819Y-87357142D01*
X102304819Y-87357142D02*
X102352438Y-87261904D01*
X102352438Y-87261904D02*
X102400057Y-87214285D01*
X102400057Y-87214285D02*
X102495295Y-87166666D01*
X102495295Y-87166666D02*
X102638152Y-87166666D01*
X102638152Y-87166666D02*
X102733390Y-87214285D01*
X102733390Y-87214285D02*
X102781009Y-87261904D01*
X102781009Y-87261904D02*
X102828628Y-87357142D01*
X102828628Y-87357142D02*
X102828628Y-87738094D01*
X102638152Y-86309523D02*
X103304819Y-86309523D01*
X102257200Y-86547618D02*
X102971485Y-86785713D01*
X102971485Y-86785713D02*
X102971485Y-86166666D01*
X64428571Y-73034819D02*
X64428571Y-73844342D01*
X64428571Y-73844342D02*
X64476190Y-73939580D01*
X64476190Y-73939580D02*
X64523809Y-73987200D01*
X64523809Y-73987200D02*
X64619047Y-74034819D01*
X64619047Y-74034819D02*
X64809523Y-74034819D01*
X64809523Y-74034819D02*
X64904761Y-73987200D01*
X64904761Y-73987200D02*
X64952380Y-73939580D01*
X64952380Y-73939580D02*
X64999999Y-73844342D01*
X64999999Y-73844342D02*
X64999999Y-73034819D01*
X65428571Y-73749104D02*
X65904761Y-73749104D01*
X65333333Y-74034819D02*
X65666666Y-73034819D01*
X65666666Y-73034819D02*
X65999999Y-74034819D01*
X66904761Y-74034819D02*
X66571428Y-73558628D01*
X66333333Y-74034819D02*
X66333333Y-73034819D01*
X66333333Y-73034819D02*
X66714285Y-73034819D01*
X66714285Y-73034819D02*
X66809523Y-73082438D01*
X66809523Y-73082438D02*
X66857142Y-73130057D01*
X66857142Y-73130057D02*
X66904761Y-73225295D01*
X66904761Y-73225295D02*
X66904761Y-73368152D01*
X66904761Y-73368152D02*
X66857142Y-73463390D01*
X66857142Y-73463390D02*
X66809523Y-73511009D01*
X66809523Y-73511009D02*
X66714285Y-73558628D01*
X66714285Y-73558628D02*
X66333333Y-73558628D01*
X67190476Y-73034819D02*
X67761904Y-73034819D01*
X67476190Y-74034819D02*
X67476190Y-73034819D01*
X68619047Y-74034819D02*
X68047619Y-74034819D01*
X68333333Y-74034819D02*
X68333333Y-73034819D01*
X68333333Y-73034819D02*
X68238095Y-73177676D01*
X68238095Y-73177676D02*
X68142857Y-73272914D01*
X68142857Y-73272914D02*
X68047619Y-73320533D01*
X98333333Y-80859580D02*
X98285714Y-80907200D01*
X98285714Y-80907200D02*
X98142857Y-80954819D01*
X98142857Y-80954819D02*
X98047619Y-80954819D01*
X98047619Y-80954819D02*
X97904762Y-80907200D01*
X97904762Y-80907200D02*
X97809524Y-80811961D01*
X97809524Y-80811961D02*
X97761905Y-80716723D01*
X97761905Y-80716723D02*
X97714286Y-80526247D01*
X97714286Y-80526247D02*
X97714286Y-80383390D01*
X97714286Y-80383390D02*
X97761905Y-80192914D01*
X97761905Y-80192914D02*
X97809524Y-80097676D01*
X97809524Y-80097676D02*
X97904762Y-80002438D01*
X97904762Y-80002438D02*
X98047619Y-79954819D01*
X98047619Y-79954819D02*
X98142857Y-79954819D01*
X98142857Y-79954819D02*
X98285714Y-80002438D01*
X98285714Y-80002438D02*
X98333333Y-80050057D01*
X98809524Y-80954819D02*
X99000000Y-80954819D01*
X99000000Y-80954819D02*
X99095238Y-80907200D01*
X99095238Y-80907200D02*
X99142857Y-80859580D01*
X99142857Y-80859580D02*
X99238095Y-80716723D01*
X99238095Y-80716723D02*
X99285714Y-80526247D01*
X99285714Y-80526247D02*
X99285714Y-80145295D01*
X99285714Y-80145295D02*
X99238095Y-80050057D01*
X99238095Y-80050057D02*
X99190476Y-80002438D01*
X99190476Y-80002438D02*
X99095238Y-79954819D01*
X99095238Y-79954819D02*
X98904762Y-79954819D01*
X98904762Y-79954819D02*
X98809524Y-80002438D01*
X98809524Y-80002438D02*
X98761905Y-80050057D01*
X98761905Y-80050057D02*
X98714286Y-80145295D01*
X98714286Y-80145295D02*
X98714286Y-80383390D01*
X98714286Y-80383390D02*
X98761905Y-80478628D01*
X98761905Y-80478628D02*
X98809524Y-80526247D01*
X98809524Y-80526247D02*
X98904762Y-80573866D01*
X98904762Y-80573866D02*
X99095238Y-80573866D01*
X99095238Y-80573866D02*
X99190476Y-80526247D01*
X99190476Y-80526247D02*
X99238095Y-80478628D01*
X99238095Y-80478628D02*
X99285714Y-80383390D01*
X104039580Y-84629166D02*
X104087200Y-84676785D01*
X104087200Y-84676785D02*
X104134819Y-84819642D01*
X104134819Y-84819642D02*
X104134819Y-84914880D01*
X104134819Y-84914880D02*
X104087200Y-85057737D01*
X104087200Y-85057737D02*
X103991961Y-85152975D01*
X103991961Y-85152975D02*
X103896723Y-85200594D01*
X103896723Y-85200594D02*
X103706247Y-85248213D01*
X103706247Y-85248213D02*
X103563390Y-85248213D01*
X103563390Y-85248213D02*
X103372914Y-85200594D01*
X103372914Y-85200594D02*
X103277676Y-85152975D01*
X103277676Y-85152975D02*
X103182438Y-85057737D01*
X103182438Y-85057737D02*
X103134819Y-84914880D01*
X103134819Y-84914880D02*
X103134819Y-84819642D01*
X103134819Y-84819642D02*
X103182438Y-84676785D01*
X103182438Y-84676785D02*
X103230057Y-84629166D01*
X103134819Y-84295832D02*
X103134819Y-83676785D01*
X103134819Y-83676785D02*
X103515771Y-84010118D01*
X103515771Y-84010118D02*
X103515771Y-83867261D01*
X103515771Y-83867261D02*
X103563390Y-83772023D01*
X103563390Y-83772023D02*
X103611009Y-83724404D01*
X103611009Y-83724404D02*
X103706247Y-83676785D01*
X103706247Y-83676785D02*
X103944342Y-83676785D01*
X103944342Y-83676785D02*
X104039580Y-83724404D01*
X104039580Y-83724404D02*
X104087200Y-83772023D01*
X104087200Y-83772023D02*
X104134819Y-83867261D01*
X104134819Y-83867261D02*
X104134819Y-84152975D01*
X104134819Y-84152975D02*
X104087200Y-84248213D01*
X104087200Y-84248213D02*
X104039580Y-84295832D01*
X76893095Y-86724819D02*
X76893095Y-87534342D01*
X76893095Y-87534342D02*
X76940714Y-87629580D01*
X76940714Y-87629580D02*
X76988333Y-87677200D01*
X76988333Y-87677200D02*
X77083571Y-87724819D01*
X77083571Y-87724819D02*
X77274047Y-87724819D01*
X77274047Y-87724819D02*
X77369285Y-87677200D01*
X77369285Y-87677200D02*
X77416904Y-87629580D01*
X77416904Y-87629580D02*
X77464523Y-87534342D01*
X77464523Y-87534342D02*
X77464523Y-86724819D01*
X78369285Y-87058152D02*
X78369285Y-87724819D01*
X78131190Y-86677200D02*
X77893095Y-87391485D01*
X77893095Y-87391485D02*
X78512142Y-87391485D01*
X83166666Y-84804819D02*
X83166666Y-85519104D01*
X83166666Y-85519104D02*
X83119047Y-85661961D01*
X83119047Y-85661961D02*
X83023809Y-85757200D01*
X83023809Y-85757200D02*
X82880952Y-85804819D01*
X82880952Y-85804819D02*
X82785714Y-85804819D01*
X83547619Y-84804819D02*
X84166666Y-84804819D01*
X84166666Y-84804819D02*
X83833333Y-85185771D01*
X83833333Y-85185771D02*
X83976190Y-85185771D01*
X83976190Y-85185771D02*
X84071428Y-85233390D01*
X84071428Y-85233390D02*
X84119047Y-85281009D01*
X84119047Y-85281009D02*
X84166666Y-85376247D01*
X84166666Y-85376247D02*
X84166666Y-85614342D01*
X84166666Y-85614342D02*
X84119047Y-85709580D01*
X84119047Y-85709580D02*
X84071428Y-85757200D01*
X84071428Y-85757200D02*
X83976190Y-85804819D01*
X83976190Y-85804819D02*
X83690476Y-85804819D01*
X83690476Y-85804819D02*
X83595238Y-85757200D01*
X83595238Y-85757200D02*
X83547619Y-85709580D01*
X101833333Y-69954819D02*
X101500000Y-69478628D01*
X101261905Y-69954819D02*
X101261905Y-68954819D01*
X101261905Y-68954819D02*
X101642857Y-68954819D01*
X101642857Y-68954819D02*
X101738095Y-69002438D01*
X101738095Y-69002438D02*
X101785714Y-69050057D01*
X101785714Y-69050057D02*
X101833333Y-69145295D01*
X101833333Y-69145295D02*
X101833333Y-69288152D01*
X101833333Y-69288152D02*
X101785714Y-69383390D01*
X101785714Y-69383390D02*
X101738095Y-69431009D01*
X101738095Y-69431009D02*
X101642857Y-69478628D01*
X101642857Y-69478628D02*
X101261905Y-69478628D01*
X102166667Y-68954819D02*
X102785714Y-68954819D01*
X102785714Y-68954819D02*
X102452381Y-69335771D01*
X102452381Y-69335771D02*
X102595238Y-69335771D01*
X102595238Y-69335771D02*
X102690476Y-69383390D01*
X102690476Y-69383390D02*
X102738095Y-69431009D01*
X102738095Y-69431009D02*
X102785714Y-69526247D01*
X102785714Y-69526247D02*
X102785714Y-69764342D01*
X102785714Y-69764342D02*
X102738095Y-69859580D01*
X102738095Y-69859580D02*
X102690476Y-69907200D01*
X102690476Y-69907200D02*
X102595238Y-69954819D01*
X102595238Y-69954819D02*
X102309524Y-69954819D01*
X102309524Y-69954819D02*
X102214286Y-69907200D01*
X102214286Y-69907200D02*
X102166667Y-69859580D01*
X71441818Y-81290304D02*
X72251341Y-81290304D01*
X72251341Y-81290304D02*
X72346579Y-81242685D01*
X72346579Y-81242685D02*
X72394199Y-81195066D01*
X72394199Y-81195066D02*
X72441818Y-81099828D01*
X72441818Y-81099828D02*
X72441818Y-80909352D01*
X72441818Y-80909352D02*
X72394199Y-80814114D01*
X72394199Y-80814114D02*
X72346579Y-80766495D01*
X72346579Y-80766495D02*
X72251341Y-80718876D01*
X72251341Y-80718876D02*
X71441818Y-80718876D01*
X71537056Y-80290304D02*
X71489437Y-80242685D01*
X71489437Y-80242685D02*
X71441818Y-80147447D01*
X71441818Y-80147447D02*
X71441818Y-79909352D01*
X71441818Y-79909352D02*
X71489437Y-79814114D01*
X71489437Y-79814114D02*
X71537056Y-79766495D01*
X71537056Y-79766495D02*
X71632294Y-79718876D01*
X71632294Y-79718876D02*
X71727532Y-79718876D01*
X71727532Y-79718876D02*
X71870389Y-79766495D01*
X71870389Y-79766495D02*
X72441818Y-80337923D01*
X72441818Y-80337923D02*
X72441818Y-79718876D01*
X74833333Y-86039580D02*
X74785714Y-86087200D01*
X74785714Y-86087200D02*
X74642857Y-86134819D01*
X74642857Y-86134819D02*
X74547619Y-86134819D01*
X74547619Y-86134819D02*
X74404762Y-86087200D01*
X74404762Y-86087200D02*
X74309524Y-85991961D01*
X74309524Y-85991961D02*
X74261905Y-85896723D01*
X74261905Y-85896723D02*
X74214286Y-85706247D01*
X74214286Y-85706247D02*
X74214286Y-85563390D01*
X74214286Y-85563390D02*
X74261905Y-85372914D01*
X74261905Y-85372914D02*
X74309524Y-85277676D01*
X74309524Y-85277676D02*
X74404762Y-85182438D01*
X74404762Y-85182438D02*
X74547619Y-85134819D01*
X74547619Y-85134819D02*
X74642857Y-85134819D01*
X74642857Y-85134819D02*
X74785714Y-85182438D01*
X74785714Y-85182438D02*
X74833333Y-85230057D01*
X75404762Y-85563390D02*
X75309524Y-85515771D01*
X75309524Y-85515771D02*
X75261905Y-85468152D01*
X75261905Y-85468152D02*
X75214286Y-85372914D01*
X75214286Y-85372914D02*
X75214286Y-85325295D01*
X75214286Y-85325295D02*
X75261905Y-85230057D01*
X75261905Y-85230057D02*
X75309524Y-85182438D01*
X75309524Y-85182438D02*
X75404762Y-85134819D01*
X75404762Y-85134819D02*
X75595238Y-85134819D01*
X75595238Y-85134819D02*
X75690476Y-85182438D01*
X75690476Y-85182438D02*
X75738095Y-85230057D01*
X75738095Y-85230057D02*
X75785714Y-85325295D01*
X75785714Y-85325295D02*
X75785714Y-85372914D01*
X75785714Y-85372914D02*
X75738095Y-85468152D01*
X75738095Y-85468152D02*
X75690476Y-85515771D01*
X75690476Y-85515771D02*
X75595238Y-85563390D01*
X75595238Y-85563390D02*
X75404762Y-85563390D01*
X75404762Y-85563390D02*
X75309524Y-85611009D01*
X75309524Y-85611009D02*
X75261905Y-85658628D01*
X75261905Y-85658628D02*
X75214286Y-85753866D01*
X75214286Y-85753866D02*
X75214286Y-85944342D01*
X75214286Y-85944342D02*
X75261905Y-86039580D01*
X75261905Y-86039580D02*
X75309524Y-86087200D01*
X75309524Y-86087200D02*
X75404762Y-86134819D01*
X75404762Y-86134819D02*
X75595238Y-86134819D01*
X75595238Y-86134819D02*
X75690476Y-86087200D01*
X75690476Y-86087200D02*
X75738095Y-86039580D01*
X75738095Y-86039580D02*
X75785714Y-85944342D01*
X75785714Y-85944342D02*
X75785714Y-85753866D01*
X75785714Y-85753866D02*
X75738095Y-85658628D01*
X75738095Y-85658628D02*
X75690476Y-85611009D01*
X75690476Y-85611009D02*
X75595238Y-85563390D01*
X76988333Y-92874819D02*
X76655000Y-92398628D01*
X76416905Y-92874819D02*
X76416905Y-91874819D01*
X76416905Y-91874819D02*
X76797857Y-91874819D01*
X76797857Y-91874819D02*
X76893095Y-91922438D01*
X76893095Y-91922438D02*
X76940714Y-91970057D01*
X76940714Y-91970057D02*
X76988333Y-92065295D01*
X76988333Y-92065295D02*
X76988333Y-92208152D01*
X76988333Y-92208152D02*
X76940714Y-92303390D01*
X76940714Y-92303390D02*
X76893095Y-92351009D01*
X76893095Y-92351009D02*
X76797857Y-92398628D01*
X76797857Y-92398628D02*
X76416905Y-92398628D01*
X77940714Y-92874819D02*
X77369286Y-92874819D01*
X77655000Y-92874819D02*
X77655000Y-91874819D01*
X77655000Y-91874819D02*
X77559762Y-92017676D01*
X77559762Y-92017676D02*
X77464524Y-92112914D01*
X77464524Y-92112914D02*
X77369286Y-92160533D01*
X97039580Y-84666666D02*
X97087200Y-84714285D01*
X97087200Y-84714285D02*
X97134819Y-84857142D01*
X97134819Y-84857142D02*
X97134819Y-84952380D01*
X97134819Y-84952380D02*
X97087200Y-85095237D01*
X97087200Y-85095237D02*
X96991961Y-85190475D01*
X96991961Y-85190475D02*
X96896723Y-85238094D01*
X96896723Y-85238094D02*
X96706247Y-85285713D01*
X96706247Y-85285713D02*
X96563390Y-85285713D01*
X96563390Y-85285713D02*
X96372914Y-85238094D01*
X96372914Y-85238094D02*
X96277676Y-85190475D01*
X96277676Y-85190475D02*
X96182438Y-85095237D01*
X96182438Y-85095237D02*
X96134819Y-84952380D01*
X96134819Y-84952380D02*
X96134819Y-84857142D01*
X96134819Y-84857142D02*
X96182438Y-84714285D01*
X96182438Y-84714285D02*
X96230057Y-84666666D01*
X97134819Y-83714285D02*
X97134819Y-84285713D01*
X97134819Y-83999999D02*
X96134819Y-83999999D01*
X96134819Y-83999999D02*
X96277676Y-84095237D01*
X96277676Y-84095237D02*
X96372914Y-84190475D01*
X96372914Y-84190475D02*
X96420533Y-84285713D01*
X97833333Y-73954819D02*
X97500000Y-73478628D01*
X97261905Y-73954819D02*
X97261905Y-72954819D01*
X97261905Y-72954819D02*
X97642857Y-72954819D01*
X97642857Y-72954819D02*
X97738095Y-73002438D01*
X97738095Y-73002438D02*
X97785714Y-73050057D01*
X97785714Y-73050057D02*
X97833333Y-73145295D01*
X97833333Y-73145295D02*
X97833333Y-73288152D01*
X97833333Y-73288152D02*
X97785714Y-73383390D01*
X97785714Y-73383390D02*
X97738095Y-73431009D01*
X97738095Y-73431009D02*
X97642857Y-73478628D01*
X97642857Y-73478628D02*
X97261905Y-73478628D01*
X98214286Y-73050057D02*
X98261905Y-73002438D01*
X98261905Y-73002438D02*
X98357143Y-72954819D01*
X98357143Y-72954819D02*
X98595238Y-72954819D01*
X98595238Y-72954819D02*
X98690476Y-73002438D01*
X98690476Y-73002438D02*
X98738095Y-73050057D01*
X98738095Y-73050057D02*
X98785714Y-73145295D01*
X98785714Y-73145295D02*
X98785714Y-73240533D01*
X98785714Y-73240533D02*
X98738095Y-73383390D01*
X98738095Y-73383390D02*
X98166667Y-73954819D01*
X98166667Y-73954819D02*
X98785714Y-73954819D01*
X63238095Y-70454819D02*
X63238095Y-71264342D01*
X63238095Y-71264342D02*
X63285714Y-71359580D01*
X63285714Y-71359580D02*
X63333333Y-71407200D01*
X63333333Y-71407200D02*
X63428571Y-71454819D01*
X63428571Y-71454819D02*
X63619047Y-71454819D01*
X63619047Y-71454819D02*
X63714285Y-71407200D01*
X63714285Y-71407200D02*
X63761904Y-71359580D01*
X63761904Y-71359580D02*
X63809523Y-71264342D01*
X63809523Y-71264342D02*
X63809523Y-70454819D01*
X64190476Y-70454819D02*
X64809523Y-70454819D01*
X64809523Y-70454819D02*
X64476190Y-70835771D01*
X64476190Y-70835771D02*
X64619047Y-70835771D01*
X64619047Y-70835771D02*
X64714285Y-70883390D01*
X64714285Y-70883390D02*
X64761904Y-70931009D01*
X64761904Y-70931009D02*
X64809523Y-71026247D01*
X64809523Y-71026247D02*
X64809523Y-71264342D01*
X64809523Y-71264342D02*
X64761904Y-71359580D01*
X64761904Y-71359580D02*
X64714285Y-71407200D01*
X64714285Y-71407200D02*
X64619047Y-71454819D01*
X64619047Y-71454819D02*
X64333333Y-71454819D01*
X64333333Y-71454819D02*
X64238095Y-71407200D01*
X64238095Y-71407200D02*
X64190476Y-71359580D01*
X98179580Y-84666666D02*
X98227200Y-84714285D01*
X98227200Y-84714285D02*
X98274819Y-84857142D01*
X98274819Y-84857142D02*
X98274819Y-84952380D01*
X98274819Y-84952380D02*
X98227200Y-85095237D01*
X98227200Y-85095237D02*
X98131961Y-85190475D01*
X98131961Y-85190475D02*
X98036723Y-85238094D01*
X98036723Y-85238094D02*
X97846247Y-85285713D01*
X97846247Y-85285713D02*
X97703390Y-85285713D01*
X97703390Y-85285713D02*
X97512914Y-85238094D01*
X97512914Y-85238094D02*
X97417676Y-85190475D01*
X97417676Y-85190475D02*
X97322438Y-85095237D01*
X97322438Y-85095237D02*
X97274819Y-84952380D01*
X97274819Y-84952380D02*
X97274819Y-84857142D01*
X97274819Y-84857142D02*
X97322438Y-84714285D01*
X97322438Y-84714285D02*
X97370057Y-84666666D01*
X97370057Y-84285713D02*
X97322438Y-84238094D01*
X97322438Y-84238094D02*
X97274819Y-84142856D01*
X97274819Y-84142856D02*
X97274819Y-83904761D01*
X97274819Y-83904761D02*
X97322438Y-83809523D01*
X97322438Y-83809523D02*
X97370057Y-83761904D01*
X97370057Y-83761904D02*
X97465295Y-83714285D01*
X97465295Y-83714285D02*
X97560533Y-83714285D01*
X97560533Y-83714285D02*
X97703390Y-83761904D01*
X97703390Y-83761904D02*
X98274819Y-84333332D01*
X98274819Y-84333332D02*
X98274819Y-83714285D01*
X62295833Y-73679580D02*
X62248214Y-73727200D01*
X62248214Y-73727200D02*
X62105357Y-73774819D01*
X62105357Y-73774819D02*
X62010119Y-73774819D01*
X62010119Y-73774819D02*
X61867262Y-73727200D01*
X61867262Y-73727200D02*
X61772024Y-73631961D01*
X61772024Y-73631961D02*
X61724405Y-73536723D01*
X61724405Y-73536723D02*
X61676786Y-73346247D01*
X61676786Y-73346247D02*
X61676786Y-73203390D01*
X61676786Y-73203390D02*
X61724405Y-73012914D01*
X61724405Y-73012914D02*
X61772024Y-72917676D01*
X61772024Y-72917676D02*
X61867262Y-72822438D01*
X61867262Y-72822438D02*
X62010119Y-72774819D01*
X62010119Y-72774819D02*
X62105357Y-72774819D01*
X62105357Y-72774819D02*
X62248214Y-72822438D01*
X62248214Y-72822438D02*
X62295833Y-72870057D01*
X62629167Y-72774819D02*
X63295833Y-72774819D01*
X63295833Y-72774819D02*
X62867262Y-73774819D01*
X100795833Y-86679580D02*
X100748214Y-86727200D01*
X100748214Y-86727200D02*
X100605357Y-86774819D01*
X100605357Y-86774819D02*
X100510119Y-86774819D01*
X100510119Y-86774819D02*
X100367262Y-86727200D01*
X100367262Y-86727200D02*
X100272024Y-86631961D01*
X100272024Y-86631961D02*
X100224405Y-86536723D01*
X100224405Y-86536723D02*
X100176786Y-86346247D01*
X100176786Y-86346247D02*
X100176786Y-86203390D01*
X100176786Y-86203390D02*
X100224405Y-86012914D01*
X100224405Y-86012914D02*
X100272024Y-85917676D01*
X100272024Y-85917676D02*
X100367262Y-85822438D01*
X100367262Y-85822438D02*
X100510119Y-85774819D01*
X100510119Y-85774819D02*
X100605357Y-85774819D01*
X100605357Y-85774819D02*
X100748214Y-85822438D01*
X100748214Y-85822438D02*
X100795833Y-85870057D01*
X101652976Y-85774819D02*
X101462500Y-85774819D01*
X101462500Y-85774819D02*
X101367262Y-85822438D01*
X101367262Y-85822438D02*
X101319643Y-85870057D01*
X101319643Y-85870057D02*
X101224405Y-86012914D01*
X101224405Y-86012914D02*
X101176786Y-86203390D01*
X101176786Y-86203390D02*
X101176786Y-86584342D01*
X101176786Y-86584342D02*
X101224405Y-86679580D01*
X101224405Y-86679580D02*
X101272024Y-86727200D01*
X101272024Y-86727200D02*
X101367262Y-86774819D01*
X101367262Y-86774819D02*
X101557738Y-86774819D01*
X101557738Y-86774819D02*
X101652976Y-86727200D01*
X101652976Y-86727200D02*
X101700595Y-86679580D01*
X101700595Y-86679580D02*
X101748214Y-86584342D01*
X101748214Y-86584342D02*
X101748214Y-86346247D01*
X101748214Y-86346247D02*
X101700595Y-86251009D01*
X101700595Y-86251009D02*
X101652976Y-86203390D01*
X101652976Y-86203390D02*
X101557738Y-86155771D01*
X101557738Y-86155771D02*
X101367262Y-86155771D01*
X101367262Y-86155771D02*
X101272024Y-86203390D01*
X101272024Y-86203390D02*
X101224405Y-86251009D01*
X101224405Y-86251009D02*
X101176786Y-86346247D01*
X97545180Y-75738095D02*
X96735657Y-75738095D01*
X96735657Y-75738095D02*
X96640419Y-75785714D01*
X96640419Y-75785714D02*
X96592800Y-75833333D01*
X96592800Y-75833333D02*
X96545180Y-75928571D01*
X96545180Y-75928571D02*
X96545180Y-76119047D01*
X96545180Y-76119047D02*
X96592800Y-76214285D01*
X96592800Y-76214285D02*
X96640419Y-76261904D01*
X96640419Y-76261904D02*
X96735657Y-76309523D01*
X96735657Y-76309523D02*
X97545180Y-76309523D01*
X96545180Y-77309523D02*
X96545180Y-76738095D01*
X96545180Y-77023809D02*
X97545180Y-77023809D01*
X97545180Y-77023809D02*
X97402323Y-76928571D01*
X97402323Y-76928571D02*
X97307085Y-76833333D01*
X97307085Y-76833333D02*
X97259466Y-76738095D01*
X97705134Y-73363099D02*
X97943229Y-73363099D01*
X97847991Y-73601194D02*
X97943229Y-73363099D01*
X97943229Y-73363099D02*
X97847991Y-73125004D01*
X98133705Y-73505956D02*
X97943229Y-73363099D01*
X97943229Y-73363099D02*
X98133705Y-73220242D01*
X98795495Y-73363100D02*
X98557400Y-73363100D01*
X98652638Y-73125005D02*
X98557400Y-73363100D01*
X98557400Y-73363100D02*
X98652638Y-73601195D01*
X98366924Y-73220243D02*
X98557400Y-73363100D01*
X98557400Y-73363100D02*
X98366924Y-73505957D01*
X96833333Y-90039580D02*
X96785714Y-90087200D01*
X96785714Y-90087200D02*
X96642857Y-90134819D01*
X96642857Y-90134819D02*
X96547619Y-90134819D01*
X96547619Y-90134819D02*
X96404762Y-90087200D01*
X96404762Y-90087200D02*
X96309524Y-89991961D01*
X96309524Y-89991961D02*
X96261905Y-89896723D01*
X96261905Y-89896723D02*
X96214286Y-89706247D01*
X96214286Y-89706247D02*
X96214286Y-89563390D01*
X96214286Y-89563390D02*
X96261905Y-89372914D01*
X96261905Y-89372914D02*
X96309524Y-89277676D01*
X96309524Y-89277676D02*
X96404762Y-89182438D01*
X96404762Y-89182438D02*
X96547619Y-89134819D01*
X96547619Y-89134819D02*
X96642857Y-89134819D01*
X96642857Y-89134819D02*
X96785714Y-89182438D01*
X96785714Y-89182438D02*
X96833333Y-89230057D01*
X97738095Y-89134819D02*
X97261905Y-89134819D01*
X97261905Y-89134819D02*
X97214286Y-89611009D01*
X97214286Y-89611009D02*
X97261905Y-89563390D01*
X97261905Y-89563390D02*
X97357143Y-89515771D01*
X97357143Y-89515771D02*
X97595238Y-89515771D01*
X97595238Y-89515771D02*
X97690476Y-89563390D01*
X97690476Y-89563390D02*
X97738095Y-89611009D01*
X97738095Y-89611009D02*
X97785714Y-89706247D01*
X97785714Y-89706247D02*
X97785714Y-89944342D01*
X97785714Y-89944342D02*
X97738095Y-90039580D01*
X97738095Y-90039580D02*
X97690476Y-90087200D01*
X97690476Y-90087200D02*
X97595238Y-90134819D01*
X97595238Y-90134819D02*
X97357143Y-90134819D01*
X97357143Y-90134819D02*
X97261905Y-90087200D01*
X97261905Y-90087200D02*
X97214286Y-90039580D01*
D11*
%TO.C,U5*%
X85204400Y-83292100D02*
X82105600Y-83292100D01*
X82105600Y-83292100D02*
X82105600Y-83607060D01*
X82105600Y-85247900D02*
X85204400Y-85247900D01*
X85204400Y-85247900D02*
X85204400Y-84932940D01*
X85204400Y-83607060D02*
X85204400Y-83292100D01*
X82105600Y-84932940D02*
X82105600Y-85247900D01*
D12*
%TO.C,C4*%
X93235000Y-84238748D02*
X93235000Y-84761252D01*
X91765000Y-84238748D02*
X91765000Y-84761252D01*
%TO.C,R6*%
X94735000Y-70772936D02*
X94735000Y-71227064D01*
X93265000Y-70772936D02*
X93265000Y-71227064D01*
%TO.C,R5*%
X94772936Y-89765000D02*
X95227064Y-89765000D01*
X94772936Y-91235000D02*
X95227064Y-91235000D01*
%TO.C,R4*%
X103765000Y-87227064D02*
X103765000Y-86772936D01*
X105235000Y-87227064D02*
X105235000Y-86772936D01*
%TO.C,UART1*%
X65120000Y-74580000D02*
X66500000Y-74580000D01*
X65120000Y-75960000D02*
X65120000Y-74580000D01*
X65120000Y-77230000D02*
X65120000Y-84960000D01*
X65120000Y-77230000D02*
X67880000Y-77230000D01*
X65120000Y-84960000D02*
X67880000Y-84960000D01*
X67880000Y-77230000D02*
X67880000Y-84960000D01*
%TO.C,C9*%
X98238748Y-79765000D02*
X98761252Y-79765000D01*
X98238748Y-81235000D02*
X98761252Y-81235000D01*
%TO.C,C3*%
X101265000Y-84201248D02*
X101265000Y-84723752D01*
X102735000Y-84201248D02*
X102735000Y-84723752D01*
D11*
%TO.C,U4*%
X76080200Y-86317500D02*
X76080200Y-88222500D01*
X77080960Y-86317500D02*
X76080200Y-86317500D01*
X77279039Y-88222500D02*
X78030961Y-88222500D01*
X79229800Y-86317500D02*
X78229040Y-86317500D01*
X79229800Y-88222500D02*
X79229800Y-86317500D01*
D12*
%TO.C,J3*%
X82120000Y-86350000D02*
X82120000Y-86920000D01*
X82120000Y-86350000D02*
X84880000Y-86350000D01*
X82120000Y-86920000D02*
X80650000Y-86920000D01*
X82120000Y-88540000D02*
X82120000Y-91650000D01*
X82120000Y-91650000D02*
X84880000Y-91650000D01*
X84880000Y-86920000D02*
X84880000Y-89460000D01*
X84880000Y-91080000D02*
X84880000Y-91650000D01*
%TO.C,R3*%
X96772936Y-68765000D02*
X97227064Y-68765000D01*
X96772936Y-70235000D02*
X97227064Y-70235000D01*
%TO.C,U2*%
X73376999Y-62188400D02*
X73376999Y-67998400D01*
X73376999Y-62188400D02*
X91596999Y-62188400D01*
X73376999Y-82108400D02*
X73376999Y-82408400D01*
X73376999Y-82408400D02*
X91596999Y-82408400D01*
X91596999Y-62188400D02*
X91596999Y-68688400D01*
X91596999Y-82108400D02*
X91596999Y-82408400D01*
X73386999Y-68698400D02*
X72886999Y-68698400D01*
X73386999Y-68198400D01*
X73386999Y-68698400D01*
G36*
X73386999Y-68698400D02*
G01*
X72886999Y-68698400D01*
X73386999Y-68198400D01*
X73386999Y-68698400D01*
G37*
%TO.C,C8*%
X75261252Y-83265000D02*
X74738748Y-83265000D01*
X75261252Y-84735000D02*
X74738748Y-84735000D01*
%TO.C,R1*%
X77382064Y-90035000D02*
X76927936Y-90035000D01*
X77382064Y-91505000D02*
X76927936Y-91505000D01*
%TO.C,C1*%
X94265000Y-84238748D02*
X94265000Y-84761252D01*
X95735000Y-84238748D02*
X95735000Y-84761252D01*
%TO.C,R2*%
X97227064Y-70765000D02*
X96772936Y-70765000D01*
X97227064Y-72235000D02*
X96772936Y-72235000D01*
D11*
%TO.C,U3*%
X61625100Y-70228041D02*
X61625100Y-71771959D01*
X62330086Y-73374900D02*
X65669914Y-73374900D01*
X65669914Y-68625100D02*
X62330086Y-68625100D01*
X66374900Y-71771959D02*
X66374900Y-70228041D01*
D12*
%TO.C,C2*%
X98765000Y-84761252D02*
X98765000Y-84238748D01*
X100235000Y-84761252D02*
X100235000Y-84238748D01*
%TO.C,C7*%
X62201248Y-74265000D02*
X62723752Y-74265000D01*
X62201248Y-75735000D02*
X62723752Y-75735000D01*
%TO.C,C6*%
X100701248Y-87265000D02*
X101223752Y-87265000D01*
X100701248Y-88735000D02*
X101223752Y-88735000D01*
D11*
%TO.C,U1*%
X94828300Y-74328300D02*
X94828300Y-74789945D01*
X94828300Y-78210055D02*
X94828300Y-78671700D01*
X94828300Y-78671700D02*
X95289945Y-78671700D01*
X95289945Y-74328300D02*
X94828300Y-74328300D01*
X98710055Y-78671700D02*
X99171700Y-78671700D01*
X99171700Y-74328300D02*
X98710055Y-74328300D01*
X99171700Y-74789945D02*
X99171700Y-74328300D01*
X99171700Y-78671700D02*
X99171700Y-78210055D01*
D13*
G36*
X94396500Y-76940563D02*
G01*
X94142500Y-76940563D01*
X94142500Y-76559563D01*
X94396500Y-76559563D01*
X94396500Y-76940563D01*
G37*
G36*
X99857500Y-77440689D02*
G01*
X99603500Y-77440689D01*
X99603500Y-77059689D01*
X99857500Y-77059689D01*
X99857500Y-77440689D01*
G37*
D12*
%TO.C,C5*%
X97261252Y-87265000D02*
X96738748Y-87265000D01*
X97261252Y-88735000D02*
X96738748Y-88735000D01*
%TD*%
M02*
