%TF.GenerationSoftware,KiCad,Pcbnew,9.0.7*%
%TF.CreationDate,2026-02-19T21:05:41-05:00*%
%TF.ProjectId,imu_esp_pcb,696d755f-6573-4705-9f70-63622e6b6963,rev?*%
%TF.SameCoordinates,Original*%
%TF.FileFunction,Copper,L1,Top*%
%TF.FilePolarity,Positive*%
%FSLAX46Y46*%
G04 Gerber Fmt 4.6, Leading zero omitted, Abs format (unit mm)*
G04 Created by KiCad (PCBNEW 9.0.7) date 2026-02-19 21:05:41*
%MOMM*%
%LPD*%
G01*
G04 APERTURE LIST*
G04 Aperture macros list*
%AMRoundRect*
0 Rectangle with rounded corners*
0 $1 Rounding radius*
0 $2 $3 $4 $5 $6 $7 $8 $9 X,Y pos of 4 corners*
0 Add a 4 corners polygon primitive as box body*
4,1,4,$2,$3,$4,$5,$6,$7,$8,$9,$2,$3,0*
0 Add four circle primitives for the rounded corners*
1,1,$1+$1,$2,$3*
1,1,$1+$1,$4,$5*
1,1,$1+$1,$6,$7*
1,1,$1+$1,$8,$9*
0 Add four rect primitives between the rounded corners*
20,1,$1+$1,$2,$3,$4,$5,0*
20,1,$1+$1,$4,$5,$6,$7,0*
20,1,$1+$1,$6,$7,$8,$9,0*
20,1,$1+$1,$8,$9,$2,$3,0*%
G04 Aperture macros list end*
%TA.AperFunction,SMDPad,CuDef*%
%ADD10R,1.117600X0.660400*%
%TD*%
%TA.AperFunction,SMDPad,CuDef*%
%ADD11RoundRect,0.250000X-0.475000X0.337500X-0.475000X-0.337500X0.475000X-0.337500X0.475000X0.337500X0*%
%TD*%
%TA.AperFunction,SMDPad,CuDef*%
%ADD12RoundRect,0.250000X-0.450000X0.350000X-0.450000X-0.350000X0.450000X-0.350000X0.450000X0.350000X0*%
%TD*%
%TA.AperFunction,SMDPad,CuDef*%
%ADD13RoundRect,0.250000X-0.350000X-0.450000X0.350000X-0.450000X0.350000X0.450000X-0.350000X0.450000X0*%
%TD*%
%TA.AperFunction,SMDPad,CuDef*%
%ADD14RoundRect,0.250000X0.450000X-0.350000X0.450000X0.350000X-0.450000X0.350000X-0.450000X-0.350000X0*%
%TD*%
%TA.AperFunction,ComponentPad*%
%ADD15R,1.700000X1.700000*%
%TD*%
%TA.AperFunction,ComponentPad*%
%ADD16C,1.700000*%
%TD*%
%TA.AperFunction,SMDPad,CuDef*%
%ADD17RoundRect,0.250000X-0.337500X-0.475000X0.337500X-0.475000X0.337500X0.475000X-0.337500X0.475000X0*%
%TD*%
%TA.AperFunction,SMDPad,CuDef*%
%ADD18R,0.482600X1.117600*%
%TD*%
%TA.AperFunction,SMDPad,CuDef*%
%ADD19R,2.510000X1.000000*%
%TD*%
%TA.AperFunction,SMDPad,CuDef*%
%ADD20R,1.500000X0.900000*%
%TD*%
%TA.AperFunction,HeatsinkPad*%
%ADD21C,0.600000*%
%TD*%
%TA.AperFunction,HeatsinkPad*%
%ADD22R,2.900000X2.900000*%
%TD*%
%TA.AperFunction,SMDPad,CuDef*%
%ADD23RoundRect,0.250000X0.337500X0.475000X-0.337500X0.475000X-0.337500X-0.475000X0.337500X-0.475000X0*%
%TD*%
%TA.AperFunction,SMDPad,CuDef*%
%ADD24RoundRect,0.250000X0.350000X0.450000X-0.350000X0.450000X-0.350000X-0.450000X0.350000X-0.450000X0*%
%TD*%
%TA.AperFunction,SMDPad,CuDef*%
%ADD25R,1.549400X0.990600*%
%TD*%
%TA.AperFunction,SMDPad,CuDef*%
%ADD26RoundRect,0.250000X0.475000X-0.337500X0.475000X0.337500X-0.475000X0.337500X-0.475000X-0.337500X0*%
%TD*%
%TA.AperFunction,SMDPad,CuDef*%
%ADD27R,0.254000X0.711200*%
%TD*%
%TA.AperFunction,SMDPad,CuDef*%
%ADD28R,0.711200X0.254000*%
%TD*%
%TA.AperFunction,SMDPad,CuDef*%
%ADD29R,2.641600X2.743200*%
%TD*%
%TA.AperFunction,Conductor*%
%ADD30C,0.200000*%
%TD*%
G04 APERTURE END LIST*
D10*
%TO.P,U5,1,1*%
%TO.N,Net-(J3-Pin_1)*%
X85376800Y-84270000D03*
%TO.P,U5,2,2*%
%TO.N,Net-(U4-VIN)*%
X81933200Y-84270000D03*
%TD*%
D11*
%TO.P,C4,2*%
%TO.N,GND*%
X92500000Y-85537500D03*
%TO.P,C4,1*%
%TO.N,Net-(U1-VLOGIC)*%
X92500000Y-83462500D03*
%TD*%
D12*
%TO.P,R6,1*%
%TO.N,SDA*%
X94000000Y-70000000D03*
%TO.P,R6,2*%
%TO.N,Net-(U1-SDA)*%
X94000000Y-72000000D03*
%TD*%
D13*
%TO.P,R5,1*%
%TO.N,GND*%
X94000000Y-90500000D03*
%TO.P,R5,2*%
X96000000Y-90500000D03*
%TD*%
D14*
%TO.P,R4,1*%
%TO.N,GND*%
X104500000Y-88000000D03*
%TO.P,R4,2*%
X104500000Y-86000000D03*
%TD*%
D15*
%TO.P,UART1,1,Pin_1*%
%TO.N,+3.3V*%
X66500000Y-75960000D03*
D16*
%TO.P,UART1,2,Pin_2*%
%TO.N,Net-(U2-IO7)*%
X66500000Y-78500000D03*
%TO.P,UART1,3,Pin_3*%
%TO.N,Net-(U2-IO8)*%
X66500000Y-81040000D03*
%TO.P,UART1,4,Pin_4*%
%TO.N,GND*%
X66500000Y-83580000D03*
%TD*%
D17*
%TO.P,C9,1*%
%TO.N,GND*%
X97462500Y-80500000D03*
%TO.P,C9,2*%
%TO.N,+3.3V*%
X99537500Y-80500000D03*
%TD*%
D11*
%TO.P,C3,1*%
%TO.N,Net-(U1-CPOUT)*%
X102000000Y-83425000D03*
%TO.P,C3,2*%
%TO.N,GND*%
X102000000Y-85500000D03*
%TD*%
D18*
%TO.P,U4,1,VSS*%
%TO.N,GND*%
X76704999Y-88463800D03*
%TO.P,U4,2,VOUT*%
%TO.N,+3.3V*%
X78605001Y-88463800D03*
%TO.P,U4,3,VIN*%
%TO.N,Net-(U4-VIN)*%
X77655000Y-86076200D03*
%TD*%
D19*
%TO.P,J3,1,Pin_1*%
%TO.N,Net-(J3-Pin_1)*%
X81845000Y-87730000D03*
%TO.P,J3,2,Pin_2*%
%TO.N,GND*%
X85155000Y-90270000D03*
%TD*%
D13*
%TO.P,R3,1*%
%TO.N,SDA*%
X96000000Y-69500000D03*
%TO.P,R3,2*%
%TO.N,+3.3V*%
X98000000Y-69500000D03*
%TD*%
D20*
%TO.P,U2,1,3V3*%
%TO.N,+3.3V*%
X73736999Y-69398400D03*
%TO.P,U2,2,EN*%
%TO.N,RESET*%
X73736999Y-70898400D03*
%TO.P,U2,3,IO4*%
%TO.N,unconnected-(U2-IO4-Pad3)*%
X73736999Y-72398400D03*
%TO.P,U2,4,IO5*%
%TO.N,unconnected-(U2-IO5-Pad4)*%
X73736999Y-73898400D03*
%TO.P,U2,5,IO6*%
%TO.N,unconnected-(U2-IO6-Pad5)*%
X73736999Y-75398400D03*
%TO.P,U2,6,IO7*%
%TO.N,Net-(U2-IO7)*%
X73736999Y-76898400D03*
%TO.P,U2,7,IO8*%
%TO.N,Net-(U2-IO8)*%
X73736999Y-78398400D03*
%TO.P,U2,8,IO9*%
%TO.N,unconnected-(U2-IO9-Pad8)*%
X73736999Y-79898400D03*
%TO.P,U2,9,GND*%
%TO.N,GND*%
X73736999Y-81398400D03*
%TO.P,U2,10,IO10*%
%TO.N,unconnected-(U2-IO10-Pad10)*%
X91236999Y-81398400D03*
%TO.P,U2,11,IO20/RXD*%
%TO.N,unconnected-(U2-IO20{slash}RXD-Pad11)*%
X91236999Y-79898400D03*
%TO.P,U2,12,IO21/TXD*%
%TO.N,unconnected-(U2-IO21{slash}TXD-Pad12)*%
X91236999Y-78398400D03*
%TO.P,U2,13,IO18*%
%TO.N,unconnected-(U2-IO18-Pad13)*%
X91236999Y-76898400D03*
%TO.P,U2,14,IO19*%
%TO.N,unconnected-(U2-IO19-Pad14)*%
X91236999Y-75398400D03*
%TO.P,U2,15,IO3*%
%TO.N,unconnected-(U2-IO3-Pad15)*%
X91236999Y-73898400D03*
%TO.P,U2,16,IO2*%
%TO.N,unconnected-(U2-IO2-Pad16)*%
X91236999Y-72398400D03*
%TO.P,U2,17,IO1*%
%TO.N,SCL*%
X91236999Y-70898400D03*
%TO.P,U2,18,IO0*%
%TO.N,SDA*%
X91236999Y-69398400D03*
D21*
%TO.P,U2,19,GND*%
%TO.N,GND*%
X82346999Y-75048400D03*
X82346999Y-76148400D03*
X82896999Y-74498400D03*
X82896999Y-75598400D03*
X82896999Y-76698400D03*
X83446999Y-75048400D03*
D22*
X83446999Y-75598400D03*
D21*
X83446999Y-76148400D03*
X83996999Y-74498400D03*
X83996999Y-75598400D03*
X83996999Y-76698400D03*
X84546999Y-75048400D03*
X84546999Y-76148400D03*
%TD*%
D23*
%TO.P,C8,1*%
%TO.N,GND*%
X76037500Y-84000000D03*
%TO.P,C8,2*%
%TO.N,Net-(U4-VIN)*%
X73962500Y-84000000D03*
%TD*%
D24*
%TO.P,R1,1*%
%TO.N,+3.3V*%
X78155000Y-90770000D03*
%TO.P,R1,2*%
%TO.N,RESET*%
X76155000Y-90770000D03*
%TD*%
D11*
%TO.P,C1,1*%
%TO.N,Net-(U1-REGOUT)*%
X95000000Y-83462500D03*
%TO.P,C1,2*%
%TO.N,GND*%
X95000000Y-85537500D03*
%TD*%
D24*
%TO.P,R2,1*%
%TO.N,+3.3V*%
X98000000Y-71500000D03*
%TO.P,R2,2*%
%TO.N,SCL*%
X96000000Y-71500000D03*
%TD*%
D25*
%TO.P,U3,1,1*%
%TO.N,unconnected-(U3-Pad1)*%
X61374999Y-69400001D03*
%TO.P,U3,2,2*%
%TO.N,RESET*%
X66625001Y-69400001D03*
%TO.P,U3,3,3*%
%TO.N,GND*%
X61374999Y-72599999D03*
%TO.P,U3,4,4*%
%TO.N,unconnected-(U3-Pad4)*%
X66625001Y-72599999D03*
%TD*%
D26*
%TO.P,C2,1*%
%TO.N,+3.3V*%
X99500000Y-85537500D03*
%TO.P,C2,2*%
%TO.N,GND*%
X99500000Y-83462500D03*
%TD*%
D17*
%TO.P,C7,1*%
%TO.N,GND*%
X61425000Y-75000000D03*
%TO.P,C7,2*%
%TO.N,RESET*%
X63500000Y-75000000D03*
%TD*%
%TO.P,C6,1*%
%TO.N,+3.3V*%
X99925000Y-88000000D03*
%TO.P,C6,2*%
%TO.N,GND*%
X102000000Y-88000000D03*
%TD*%
D27*
%TO.P,U1,1,CLKIN*%
%TO.N,unconnected-(U1-CLKIN-Pad1)*%
X98250315Y-74506100D03*
%TO.P,U1,2,NC*%
%TO.N,unconnected-(U1-NC-Pad2)*%
X97750189Y-74506100D03*
%TO.P,U1,3,NC*%
%TO.N,unconnected-(U1-NC-Pad3)*%
X97250063Y-74506100D03*
%TO.P,U1,4,NC*%
%TO.N,unconnected-(U1-NC-Pad4)*%
X96749937Y-74506100D03*
%TO.P,U1,5,NC*%
%TO.N,unconnected-(U1-NC-Pad5)*%
X96249811Y-74506100D03*
%TO.P,U1,6,AUX_DA*%
%TO.N,unconnected-(U1-AUX_DA-Pad6)*%
X95749685Y-74506100D03*
D28*
%TO.P,U1,7,AUX_CL*%
%TO.N,unconnected-(U1-AUX_CL-Pad7)*%
X95006100Y-75249685D03*
%TO.P,U1,8,VLOGIC*%
%TO.N,Net-(U1-VLOGIC)*%
X95006100Y-75749811D03*
%TO.P,U1,9,AD0*%
%TO.N,GND*%
X95006100Y-76249937D03*
%TO.P,U1,10,REGOUT*%
%TO.N,Net-(U1-REGOUT)*%
X95006100Y-76750063D03*
%TO.P,U1,11,FSYNC*%
%TO.N,GND*%
X95006100Y-77250189D03*
%TO.P,U1,12,INT*%
X95006100Y-77750315D03*
D27*
%TO.P,U1,13,VDD*%
%TO.N,+3.3V*%
X95749685Y-78493900D03*
%TO.P,U1,14,NC*%
%TO.N,unconnected-(U1-NC-Pad14)*%
X96249811Y-78493900D03*
%TO.P,U1,15,NC*%
%TO.N,unconnected-(U1-NC-Pad15)*%
X96749937Y-78493900D03*
%TO.P,U1,16,NC*%
%TO.N,unconnected-(U1-NC-Pad16)*%
X97250063Y-78493900D03*
%TO.P,U1,17,NC*%
%TO.N,unconnected-(U1-NC-Pad17)*%
X97750189Y-78493900D03*
%TO.P,U1,18,GND*%
%TO.N,GND*%
X98250315Y-78493900D03*
D28*
%TO.P,U1,19,RESV*%
%TO.N,unconnected-(U1-RESV-Pad19)*%
X98993900Y-77750315D03*
%TO.P,U1,20,CPOUT*%
%TO.N,Net-(U1-CPOUT)*%
X98993900Y-77250189D03*
%TO.P,U1,21,RESV*%
%TO.N,unconnected-(U1-RESV-Pad21)*%
X98993900Y-76750063D03*
%TO.P,U1,22,RESV*%
%TO.N,unconnected-(U1-RESV-Pad22)*%
X98993900Y-76249937D03*
%TO.P,U1,23,SCL*%
%TO.N,SCL*%
X98993900Y-75749811D03*
%TO.P,U1,24,SDA*%
%TO.N,Net-(U1-SDA)*%
X98993900Y-75249685D03*
D29*
%TO.P,U1,25,EPAD*%
%TO.N,unconnected-(U1-EPAD-Pad25)*%
X97000000Y-76500000D03*
%TD*%
D23*
%TO.P,C5,1*%
%TO.N,+3.3V*%
X98037500Y-88000000D03*
%TO.P,C5,2*%
%TO.N,GND*%
X95962500Y-88000000D03*
%TD*%
D30*
%TO.N,Net-(U4-VIN)*%
X73962500Y-84000000D02*
X76038700Y-86076200D01*
X76038700Y-86076200D02*
X77655000Y-86076200D01*
%TO.N,GND*%
X104000000Y-85500000D02*
X104500000Y-86000000D01*
X102000000Y-85500000D02*
X104000000Y-85500000D01*
%TO.N,+3.3V*%
X104000000Y-80500000D02*
X99537500Y-80500000D01*
X106000000Y-89000000D02*
X106000000Y-82500000D01*
X100000000Y-89037500D02*
X100462500Y-89500000D01*
X100000000Y-88075000D02*
X100000000Y-89037500D01*
X99925000Y-88000000D02*
X100000000Y-88075000D01*
X100462500Y-89500000D02*
X105500000Y-89500000D01*
X105500000Y-89500000D02*
X106000000Y-89000000D01*
X106000000Y-82500000D02*
X104000000Y-80500000D01*
%TO.N,SCL*%
X93000000Y-71000000D02*
X95500000Y-71000000D01*
X92898400Y-70898400D02*
X93000000Y-71000000D01*
X91236999Y-70898400D02*
X92898400Y-70898400D01*
X95500000Y-71000000D02*
X96000000Y-71500000D01*
%TO.N,Net-(U1-VLOGIC)*%
X94287678Y-75749811D02*
X95006100Y-75749811D01*
X92500000Y-83462500D02*
X92500000Y-77537489D01*
X92500000Y-77537489D02*
X94287678Y-75749811D01*
%TO.N,GND*%
X93526000Y-84511500D02*
X92500000Y-85537500D01*
X93526000Y-77078589D02*
X93526000Y-84511500D01*
X94354652Y-76249937D02*
X93526000Y-77078589D01*
X95006100Y-76249937D02*
X94354652Y-76249937D01*
X92537500Y-85500000D02*
X92500000Y-85537500D01*
X94500000Y-85500000D02*
X92537500Y-85500000D01*
X94537500Y-85537500D02*
X94500000Y-85500000D01*
%TO.N,Net-(U1-CPOUT)*%
X99578374Y-77250189D02*
X98993900Y-77250189D01*
X99650500Y-77322315D02*
X99578374Y-77250189D01*
X99650500Y-78178315D02*
X99650500Y-77322315D01*
X98651315Y-79177500D02*
X99650500Y-78178315D01*
X98651315Y-79878285D02*
X98651315Y-79177500D01*
X98514800Y-80014800D02*
X98651315Y-79878285D01*
X98514800Y-81373960D02*
X98514800Y-80014800D01*
X98666840Y-81526000D02*
X98514800Y-81373960D01*
X100101000Y-81526000D02*
X98666840Y-81526000D01*
X102000000Y-83425000D02*
X100101000Y-81526000D01*
%TO.N,GND*%
X98250315Y-79712185D02*
X98250315Y-78493900D01*
X97462500Y-80500000D02*
X98250315Y-79712185D01*
%TO.N,+3.3V*%
X99537500Y-79537500D02*
X99537500Y-80500000D01*
X101000000Y-78075000D02*
X99537500Y-79537500D01*
%TO.N,GND*%
X99371740Y-83462500D02*
X97462500Y-81553260D01*
X97462500Y-81553260D02*
X97462500Y-80500000D01*
X99500000Y-83462500D02*
X99371740Y-83462500D01*
X96026000Y-82889840D02*
X96026000Y-84511500D01*
X95006100Y-81869940D02*
X96026000Y-82889840D01*
X96026000Y-84511500D02*
X95000000Y-85537500D01*
X95006100Y-77750315D02*
X95006100Y-81869940D01*
%TO.N,Net-(U1-REGOUT)*%
X94349500Y-81849500D02*
X95000000Y-82500000D01*
X94349500Y-76822189D02*
X94349500Y-81849500D01*
X95000000Y-82500000D02*
X95000000Y-83462500D01*
X95006100Y-76750063D02*
X94421626Y-76750063D01*
X94421626Y-76750063D02*
X94349500Y-76822189D01*
%TO.N,GND*%
X95006100Y-77250189D02*
X95006100Y-77750315D01*
%TO.N,Net-(U1-SDA)*%
X95101000Y-73101000D02*
X94000000Y-72000000D01*
X97929815Y-73101000D02*
X95101000Y-73101000D01*
X98993900Y-74165085D02*
X97929815Y-73101000D01*
X98993900Y-75249685D02*
X98993900Y-74165085D01*
%TO.N,SDA*%
X95500000Y-70000000D02*
X96000000Y-69500000D01*
X92601600Y-69398400D02*
X93203200Y-70000000D01*
X93203200Y-70000000D02*
X95500000Y-70000000D01*
X91236999Y-69398400D02*
X92601600Y-69398400D01*
%TO.N,GND*%
X99962500Y-83462500D02*
X99500000Y-83462500D01*
X102000000Y-85500000D02*
X99962500Y-83462500D01*
X104500000Y-86000000D02*
X104000000Y-86000000D01*
%TO.N,+3.3V*%
X96538500Y-89499000D02*
X98037500Y-88000000D01*
X95414840Y-89499000D02*
X96538500Y-89499000D01*
X95099000Y-89814840D02*
X95414840Y-89499000D01*
X94585160Y-91501000D02*
X94901000Y-91185160D01*
X94037500Y-92000000D02*
X94536500Y-91501000D01*
X94536500Y-91501000D02*
X94585160Y-91501000D01*
X94901000Y-91185160D02*
X94901000Y-91136500D01*
X95099000Y-90938500D02*
X95099000Y-89814840D01*
X78155000Y-90770000D02*
X79385000Y-92000000D01*
X94901000Y-91136500D02*
X95099000Y-90938500D01*
%TO.N,GND*%
X98737500Y-83462500D02*
X99500000Y-83462500D01*
X101537500Y-85500000D02*
X102000000Y-85500000D01*
X85155000Y-90155000D02*
X85000000Y-90000000D01*
%TO.N,+3.3V*%
X101000000Y-72500000D02*
X101000000Y-78075000D01*
X98336500Y-84374000D02*
X99500000Y-85537500D01*
X98037500Y-88000000D02*
X99925000Y-88000000D01*
X97889100Y-82574000D02*
X98336500Y-83021400D01*
X95749685Y-78493900D02*
X95611500Y-78632085D01*
X96975340Y-82574000D02*
X97889100Y-82574000D01*
X66500000Y-75960000D02*
X73061600Y-69398400D01*
X78605001Y-88463800D02*
X78605001Y-90319999D01*
X78605001Y-90319999D02*
X78155000Y-90770000D01*
X95611500Y-78632085D02*
X95611500Y-81210160D01*
X98000000Y-69500000D02*
X101000000Y-72500000D01*
X98336500Y-83021400D02*
X98336500Y-84374000D01*
X98037500Y-87000000D02*
X99500000Y-85537500D01*
X98037500Y-88000000D02*
X98037500Y-87000000D01*
X95611500Y-81210160D02*
X96975340Y-82574000D01*
X73061600Y-69398400D02*
X73736999Y-69398400D01*
X101000000Y-74500000D02*
X101000000Y-78075000D01*
X98000000Y-71500000D02*
X101000000Y-74500000D01*
%TO.N,RESET*%
X66261240Y-82429000D02*
X63500000Y-79667760D01*
X74787999Y-70149400D02*
X74787999Y-68647400D01*
X73736999Y-70898400D02*
X74038999Y-70898400D01*
X74787999Y-68647400D02*
X67377602Y-68647400D01*
X76155000Y-90770000D02*
X67814000Y-82429000D01*
X67377602Y-68647400D02*
X66625001Y-69400001D01*
X74038999Y-70898400D02*
X74787999Y-70149400D01*
X63500000Y-72525002D02*
X63500000Y-75000000D01*
X63500000Y-79667760D02*
X63500000Y-75000000D01*
X66625001Y-69400001D02*
X63500000Y-72525002D01*
X67814000Y-82429000D02*
X66261240Y-82429000D01*
%TO.N,Net-(U4-VIN)*%
X81933200Y-84270000D02*
X79461200Y-84270000D01*
X79461200Y-84270000D02*
X77655000Y-86076200D01*
%TO.N,Net-(J3-Pin_1)*%
X81916800Y-87730000D02*
X85376800Y-84270000D01*
X81845000Y-87730000D02*
X81916800Y-87730000D01*
%TO.N,SCL*%
X97414840Y-72501000D02*
X98001000Y-72501000D01*
X98001000Y-72501000D02*
X100000000Y-74500000D01*
X100000000Y-74500000D02*
X100000000Y-75500000D01*
X96000000Y-71500000D02*
X97000000Y-71500000D01*
X100000000Y-75500000D02*
X99750189Y-75749811D01*
X97099000Y-72185160D02*
X97414840Y-72501000D01*
X97099000Y-71599000D02*
X97099000Y-72185160D01*
X99750189Y-75749811D02*
X98993900Y-75749811D01*
X97000000Y-71500000D02*
X97099000Y-71599000D01*
%TO.N,Net-(U2-IO7)*%
X68101600Y-76898400D02*
X73736999Y-76898400D01*
X66500000Y-78500000D02*
X68101600Y-76898400D01*
%TO.N,Net-(U2-IO8)*%
X66500000Y-81040000D02*
X69141600Y-78398400D01*
X69141600Y-78398400D02*
X73736999Y-78398400D01*
%TO.N,+3.3V*%
X79385000Y-92000000D02*
X94037500Y-92000000D01*
%TD*%
%TA.AperFunction,Conductor*%
%TO.N,GND*%
G36*
X60105322Y-68520185D02*
G01*
X60151077Y-68572989D01*
X60161021Y-68642147D01*
X60154465Y-68667833D01*
X60106207Y-68797218D01*
X60099800Y-68856817D01*
X60099799Y-68856829D01*
X60099799Y-69943171D01*
X60099800Y-69943177D01*
X60106207Y-70002784D01*
X60156501Y-70137629D01*
X60156505Y-70137636D01*
X60242751Y-70252845D01*
X60242754Y-70252848D01*
X60357963Y-70339094D01*
X60357970Y-70339098D01*
X60492816Y-70389392D01*
X60492815Y-70389392D01*
X60499743Y-70390136D01*
X60552426Y-70395801D01*
X62197571Y-70395800D01*
X62257182Y-70389392D01*
X62392030Y-70339097D01*
X62507245Y-70252847D01*
X62593495Y-70137632D01*
X62643790Y-70002784D01*
X62650199Y-69943174D01*
X62650198Y-68856829D01*
X62643790Y-68797218D01*
X62636702Y-68778214D01*
X62595533Y-68667833D01*
X62590549Y-68598141D01*
X62624034Y-68536818D01*
X62685358Y-68503334D01*
X62711715Y-68500500D01*
X65288285Y-68500500D01*
X65355324Y-68520185D01*
X65401079Y-68572989D01*
X65411023Y-68642147D01*
X65404467Y-68667833D01*
X65356209Y-68797218D01*
X65349802Y-68856817D01*
X65349801Y-68856829D01*
X65349801Y-69774602D01*
X65330116Y-69841641D01*
X65313482Y-69862283D01*
X63134436Y-72041329D01*
X63134429Y-72041336D01*
X63131286Y-72044480D01*
X63131284Y-72044482D01*
X63019480Y-72156286D01*
X62994531Y-72199500D01*
X62988624Y-72209730D01*
X62988623Y-72209732D01*
X62954857Y-72268216D01*
X62940423Y-72293217D01*
X62899499Y-72445945D01*
X62899499Y-72445947D01*
X62899499Y-72614048D01*
X62899500Y-72614061D01*
X62899500Y-73736232D01*
X62879815Y-73803271D01*
X62840598Y-73841769D01*
X62746496Y-73899812D01*
X62693842Y-73932289D01*
X62569788Y-74056343D01*
X62569783Y-74056349D01*
X62567741Y-74059661D01*
X62565747Y-74061453D01*
X62565307Y-74062011D01*
X62565211Y-74061935D01*
X62515791Y-74106383D01*
X62446828Y-74117602D01*
X62382747Y-74089755D01*
X62356668Y-74059656D01*
X62354819Y-74056659D01*
X62354816Y-74056655D01*
X62230845Y-73932684D01*
X62081624Y-73840643D01*
X62081619Y-73840641D01*
X62070645Y-73837005D01*
X62013200Y-73797232D01*
X61986377Y-73732716D01*
X61998692Y-73663940D01*
X62046235Y-73612741D01*
X62109649Y-73595299D01*
X62197527Y-73595299D01*
X62197543Y-73595298D01*
X62257071Y-73588897D01*
X62257078Y-73588895D01*
X62391785Y-73538653D01*
X62391792Y-73538649D01*
X62506886Y-73452489D01*
X62506889Y-73452486D01*
X62593049Y-73337392D01*
X62593053Y-73337385D01*
X62643295Y-73202678D01*
X62643297Y-73202671D01*
X62649698Y-73143143D01*
X62649699Y-73143126D01*
X62649699Y-72849999D01*
X61624999Y-72849999D01*
X61624999Y-73595299D01*
X61652169Y-73622469D01*
X61685654Y-73683792D01*
X61680670Y-73753484D01*
X61675000Y-73762306D01*
X61675000Y-76224999D01*
X61812472Y-76224999D01*
X61812486Y-76224998D01*
X61915197Y-76214505D01*
X62081619Y-76159358D01*
X62081624Y-76159356D01*
X62230845Y-76067315D01*
X62354818Y-75943342D01*
X62356665Y-75940348D01*
X62358469Y-75938724D01*
X62359298Y-75937677D01*
X62359476Y-75937818D01*
X62408610Y-75893621D01*
X62477573Y-75882396D01*
X62541656Y-75910236D01*
X62567743Y-75940341D01*
X62569788Y-75943656D01*
X62693844Y-76067712D01*
X62840597Y-76158229D01*
X62887321Y-76210175D01*
X62899500Y-76263767D01*
X62899500Y-79581090D01*
X62899499Y-79581108D01*
X62899499Y-79746814D01*
X62899498Y-79746814D01*
X62940423Y-79899545D01*
X62944275Y-79906216D01*
X62944278Y-79906222D01*
X63019477Y-80036472D01*
X63019481Y-80036477D01*
X63138349Y-80155345D01*
X63138355Y-80155350D01*
X65780718Y-82797713D01*
X65780720Y-82797716D01*
X65892524Y-82909520D01*
X65936143Y-82934703D01*
X65949376Y-82942343D01*
X66029449Y-82988574D01*
X66029450Y-82988574D01*
X66029455Y-82988577D01*
X66182183Y-83029500D01*
X66251692Y-83029500D01*
X66318731Y-83049185D01*
X66339373Y-83065819D01*
X66370591Y-83097037D01*
X66307007Y-83114075D01*
X66192993Y-83179901D01*
X66099901Y-83272993D01*
X66034075Y-83387007D01*
X66017037Y-83450591D01*
X65384728Y-82818282D01*
X65384727Y-82818282D01*
X65345380Y-82872439D01*
X65248904Y-83061782D01*
X65183242Y-83263869D01*
X65183242Y-83263872D01*
X65150000Y-83473753D01*
X65150000Y-83686246D01*
X65183242Y-83896127D01*
X65183242Y-83896130D01*
X65248904Y-84098217D01*
X65345375Y-84287550D01*
X65384728Y-84341716D01*
X66017037Y-83709408D01*
X66034075Y-83772993D01*
X66099901Y-83887007D01*
X66192993Y-83980099D01*
X66307007Y-84045925D01*
X66370590Y-84062962D01*
X65738282Y-84695269D01*
X65738282Y-84695270D01*
X65792449Y-84734624D01*
X65981782Y-84831095D01*
X66183870Y-84896757D01*
X66393754Y-84930000D01*
X66606246Y-84930000D01*
X66816127Y-84896757D01*
X66816130Y-84896757D01*
X67018217Y-84831095D01*
X67207554Y-84734622D01*
X67261716Y-84695270D01*
X67261717Y-84695270D01*
X66629408Y-84062962D01*
X66692993Y-84045925D01*
X66807007Y-83980099D01*
X66900099Y-83887007D01*
X66965925Y-83772993D01*
X66982962Y-83709408D01*
X67615270Y-84341717D01*
X67615270Y-84341716D01*
X67654622Y-84287554D01*
X67751095Y-84098217D01*
X67816757Y-83896130D01*
X67816757Y-83896127D01*
X67850000Y-83686246D01*
X67850000Y-83613597D01*
X67869685Y-83546558D01*
X67922489Y-83500803D01*
X67991647Y-83490859D01*
X68055203Y-83519884D01*
X68061681Y-83525916D01*
X75018181Y-90482416D01*
X75051666Y-90543739D01*
X75054500Y-90570097D01*
X75054500Y-91270001D01*
X75054501Y-91270019D01*
X75065000Y-91372796D01*
X75065001Y-91372799D01*
X75120185Y-91539331D01*
X75120187Y-91539336D01*
X75154999Y-91595776D01*
X75212288Y-91688656D01*
X75336344Y-91812712D01*
X75485666Y-91904814D01*
X75652203Y-91959999D01*
X75754991Y-91970500D01*
X76555008Y-91970499D01*
X76555016Y-91970498D01*
X76555019Y-91970498D01*
X76611302Y-91964748D01*
X76657797Y-91959999D01*
X76824334Y-91904814D01*
X76973656Y-91812712D01*
X77067319Y-91719049D01*
X77128642Y-91685564D01*
X77198334Y-91690548D01*
X77242681Y-91719049D01*
X77336344Y-91812712D01*
X77485666Y-91904814D01*
X77652203Y-91959999D01*
X77754991Y-91970500D01*
X78454901Y-91970499D01*
X78521940Y-91990183D01*
X78542582Y-92006818D01*
X79016284Y-92480520D01*
X79016286Y-92480521D01*
X79016290Y-92480524D01*
X79153209Y-92559573D01*
X79153216Y-92559577D01*
X79305943Y-92600501D01*
X79305945Y-92600501D01*
X79471654Y-92600501D01*
X79471670Y-92600500D01*
X93950831Y-92600500D01*
X93950847Y-92600501D01*
X93958443Y-92600501D01*
X94116554Y-92600501D01*
X94116557Y-92600501D01*
X94269285Y-92559577D01*
X94319404Y-92530639D01*
X94406216Y-92480520D01*
X94518020Y-92368716D01*
X94518021Y-92368714D01*
X94827206Y-92059528D01*
X94852876Y-92039830D01*
X94867064Y-92031639D01*
X94953876Y-91981520D01*
X95065680Y-91869716D01*
X95065680Y-91869714D01*
X95075888Y-91859507D01*
X95075890Y-91859504D01*
X95254382Y-91681011D01*
X95315703Y-91647528D01*
X95381065Y-91650988D01*
X95497302Y-91689505D01*
X95497309Y-91689506D01*
X95600019Y-91699999D01*
X95749999Y-91699999D01*
X96250000Y-91699999D01*
X96399972Y-91699999D01*
X96399986Y-91699998D01*
X96502697Y-91689505D01*
X96669119Y-91634358D01*
X96669124Y-91634356D01*
X96818345Y-91542315D01*
X96942315Y-91418345D01*
X97034356Y-91269124D01*
X97034358Y-91269119D01*
X97089505Y-91102697D01*
X97089506Y-91102690D01*
X97099999Y-90999986D01*
X97100000Y-90999973D01*
X97100000Y-90750000D01*
X96250000Y-90750000D01*
X96250000Y-91699999D01*
X95749999Y-91699999D01*
X95750000Y-91699998D01*
X95750000Y-90750000D01*
X95735819Y-90735819D01*
X95702334Y-90674496D01*
X95699500Y-90648138D01*
X95699500Y-90351862D01*
X95719185Y-90284823D01*
X95735819Y-90264181D01*
X95750000Y-90250000D01*
X95750000Y-90223500D01*
X95769685Y-90156461D01*
X95822489Y-90110706D01*
X95874000Y-90099500D01*
X96126000Y-90099500D01*
X96193039Y-90119185D01*
X96238794Y-90171989D01*
X96250000Y-90223500D01*
X96250000Y-90250000D01*
X97099999Y-90250000D01*
X97099999Y-90000028D01*
X97099998Y-90000013D01*
X97089506Y-89897306D01*
X97089505Y-89897305D01*
X97088655Y-89894737D01*
X97088597Y-89893061D01*
X97088089Y-89890687D01*
X97088512Y-89890596D01*
X97086253Y-89824909D01*
X97118677Y-89768056D01*
X97624916Y-89261818D01*
X97686239Y-89228333D01*
X97712597Y-89225499D01*
X98425002Y-89225499D01*
X98425008Y-89225499D01*
X98527797Y-89214999D01*
X98694334Y-89159814D01*
X98843656Y-89067712D01*
X98893569Y-89017799D01*
X98954892Y-88984314D01*
X99024584Y-88989298D01*
X99068931Y-89017799D01*
X99118844Y-89067712D01*
X99268166Y-89159814D01*
X99361551Y-89190758D01*
X99418995Y-89230531D01*
X99431630Y-89249500D01*
X99438553Y-89262308D01*
X99440423Y-89269285D01*
X99469360Y-89319404D01*
X99470236Y-89320921D01*
X99470238Y-89320925D01*
X99473543Y-89326649D01*
X99519480Y-89406216D01*
X99631284Y-89518020D01*
X99631285Y-89518021D01*
X100093784Y-89980520D01*
X100093786Y-89980521D01*
X100093790Y-89980524D01*
X100210674Y-90048006D01*
X100230716Y-90059577D01*
X100383443Y-90100501D01*
X100383445Y-90100501D01*
X100549154Y-90100501D01*
X100549170Y-90100500D01*
X105413331Y-90100500D01*
X105413347Y-90100501D01*
X105420943Y-90100501D01*
X105579054Y-90100501D01*
X105579057Y-90100501D01*
X105731785Y-90059577D01*
X105781904Y-90030639D01*
X105868716Y-89980520D01*
X105980520Y-89868716D01*
X105980521Y-89868714D01*
X106287820Y-89561415D01*
X106349142Y-89527931D01*
X106418834Y-89532915D01*
X106474767Y-89574787D01*
X106499184Y-89640251D01*
X106499500Y-89649097D01*
X106499500Y-93375500D01*
X106479815Y-93442539D01*
X106427011Y-93488294D01*
X106375500Y-93499500D01*
X59124500Y-93499500D01*
X59057461Y-93479815D01*
X59011706Y-93427011D01*
X59000500Y-93375500D01*
X59000500Y-75524986D01*
X60337501Y-75524986D01*
X60347994Y-75627697D01*
X60403141Y-75794119D01*
X60403143Y-75794124D01*
X60495184Y-75943345D01*
X60619154Y-76067315D01*
X60768375Y-76159356D01*
X60768380Y-76159358D01*
X60934802Y-76214505D01*
X60934809Y-76214506D01*
X61037519Y-76224999D01*
X61174999Y-76224999D01*
X61175000Y-76224998D01*
X61175000Y-75250000D01*
X60337501Y-75250000D01*
X60337501Y-75524986D01*
X59000500Y-75524986D01*
X59000500Y-73143143D01*
X60100299Y-73143143D01*
X60106700Y-73202671D01*
X60106702Y-73202678D01*
X60156944Y-73337385D01*
X60156948Y-73337392D01*
X60243108Y-73452486D01*
X60243111Y-73452489D01*
X60358205Y-73538649D01*
X60358212Y-73538653D01*
X60492919Y-73588895D01*
X60492926Y-73588897D01*
X60552454Y-73595298D01*
X60552471Y-73595299D01*
X60740351Y-73595299D01*
X60807390Y-73614984D01*
X60853145Y-73667788D01*
X60863089Y-73736946D01*
X60834064Y-73800502D01*
X60779355Y-73837005D01*
X60768380Y-73840641D01*
X60768375Y-73840643D01*
X60619154Y-73932684D01*
X60495184Y-74056654D01*
X60403143Y-74205875D01*
X60403141Y-74205880D01*
X60347994Y-74372302D01*
X60347993Y-74372309D01*
X60337500Y-74475013D01*
X60337500Y-74750000D01*
X61175000Y-74750000D01*
X61175000Y-73774999D01*
X61147830Y-73747829D01*
X61114345Y-73686506D01*
X61119329Y-73616814D01*
X61124999Y-73607991D01*
X61124999Y-72849999D01*
X60100299Y-72849999D01*
X60100299Y-73143143D01*
X59000500Y-73143143D01*
X59000500Y-72056854D01*
X60100299Y-72056854D01*
X60100299Y-72349999D01*
X61124999Y-72349999D01*
X61624999Y-72349999D01*
X62649699Y-72349999D01*
X62649699Y-72056871D01*
X62649698Y-72056854D01*
X62643297Y-71997326D01*
X62643295Y-71997319D01*
X62593053Y-71862612D01*
X62593049Y-71862605D01*
X62506889Y-71747511D01*
X62506886Y-71747508D01*
X62391792Y-71661348D01*
X62391785Y-71661344D01*
X62257078Y-71611102D01*
X62257071Y-71611100D01*
X62197543Y-71604699D01*
X61624999Y-71604699D01*
X61624999Y-72349999D01*
X61124999Y-72349999D01*
X61124999Y-71604699D01*
X60552454Y-71604699D01*
X60492926Y-71611100D01*
X60492919Y-71611102D01*
X60358212Y-71661344D01*
X60358205Y-71661348D01*
X60243111Y-71747508D01*
X60243108Y-71747511D01*
X60156948Y-71862605D01*
X60156944Y-71862612D01*
X60106702Y-71997319D01*
X60106700Y-71997326D01*
X60100299Y-72056854D01*
X59000500Y-72056854D01*
X59000500Y-68624500D01*
X59020185Y-68557461D01*
X59072989Y-68511706D01*
X59124500Y-68500500D01*
X60038283Y-68500500D01*
X60105322Y-68520185D01*
G37*
%TD.AperFunction*%
%TA.AperFunction,Conductor*%
G36*
X90016408Y-68520185D02*
G01*
X90062163Y-68572989D01*
X90072107Y-68642147D01*
X90048637Y-68698809D01*
X90043204Y-68706065D01*
X90043201Y-68706071D01*
X89992907Y-68840917D01*
X89986500Y-68900516D01*
X89986499Y-68900535D01*
X89986499Y-69896270D01*
X89986500Y-69896276D01*
X89992907Y-69955883D01*
X90046302Y-70099041D01*
X90044574Y-70099685D01*
X90057094Y-70157253D01*
X90045309Y-70197388D01*
X90046302Y-70197759D01*
X89992907Y-70340917D01*
X89986500Y-70400516D01*
X89986499Y-70400529D01*
X89986499Y-71396270D01*
X89986500Y-71396276D01*
X89992907Y-71455883D01*
X90046302Y-71599041D01*
X90044574Y-71599685D01*
X90057094Y-71657253D01*
X90045309Y-71697388D01*
X90046302Y-71697759D01*
X89992907Y-71840917D01*
X89990601Y-71862370D01*
X89986500Y-71900523D01*
X89986499Y-71900535D01*
X89986499Y-72896270D01*
X89986500Y-72896276D01*
X89992907Y-72955883D01*
X90046302Y-73099041D01*
X90044574Y-73099685D01*
X90057094Y-73157253D01*
X90045309Y-73197388D01*
X90046302Y-73197759D01*
X89992907Y-73340917D01*
X89986500Y-73400516D01*
X89986500Y-73400523D01*
X89986499Y-73400535D01*
X89986499Y-74396270D01*
X89986500Y-74396276D01*
X89992907Y-74455883D01*
X90046302Y-74599041D01*
X90044574Y-74599685D01*
X90057094Y-74657253D01*
X90045309Y-74697388D01*
X90046302Y-74697759D01*
X89992907Y-74840917D01*
X89986500Y-74900516D01*
X89986500Y-74900523D01*
X89986499Y-74900535D01*
X89986499Y-75896270D01*
X89986500Y-75896276D01*
X89992907Y-75955883D01*
X90046302Y-76099041D01*
X90044574Y-76099685D01*
X90057094Y-76157253D01*
X90045309Y-76197388D01*
X90046302Y-76197759D01*
X89992907Y-76340917D01*
X89986500Y-76400516D01*
X89986500Y-76400523D01*
X89986499Y-76400535D01*
X89986499Y-77396270D01*
X89986500Y-77396276D01*
X89992907Y-77455883D01*
X90046302Y-77599041D01*
X90044574Y-77599685D01*
X90057094Y-77657253D01*
X90045309Y-77697388D01*
X90046302Y-77697759D01*
X89992907Y-77840917D01*
X89986935Y-77896473D01*
X89986500Y-77900523D01*
X89986499Y-77900535D01*
X89986499Y-78896270D01*
X89986500Y-78896276D01*
X89992907Y-78955883D01*
X90046302Y-79099041D01*
X90044574Y-79099685D01*
X90057094Y-79157253D01*
X90045309Y-79197388D01*
X90046302Y-79197759D01*
X89992907Y-79340917D01*
X89991931Y-79350000D01*
X89986500Y-79400523D01*
X89986499Y-79400535D01*
X89986499Y-80396270D01*
X89986500Y-80396276D01*
X89992907Y-80455883D01*
X90046302Y-80599041D01*
X90044574Y-80599685D01*
X90057094Y-80657253D01*
X90045309Y-80697388D01*
X90046302Y-80697759D01*
X89992907Y-80840917D01*
X89986500Y-80900516D01*
X89986499Y-80900535D01*
X89986499Y-81896270D01*
X89986500Y-81896276D01*
X89992907Y-81955883D01*
X90043201Y-82090728D01*
X90043205Y-82090735D01*
X90129451Y-82205944D01*
X90129454Y-82205947D01*
X90244663Y-82292193D01*
X90244670Y-82292197D01*
X90379516Y-82342491D01*
X90379515Y-82342491D01*
X90386443Y-82343235D01*
X90439126Y-82348900D01*
X91440371Y-82348899D01*
X91507409Y-82368583D01*
X91553164Y-82421387D01*
X91563108Y-82490546D01*
X91534083Y-82554102D01*
X91528052Y-82560580D01*
X91432287Y-82656345D01*
X91340187Y-82805663D01*
X91340185Y-82805668D01*
X91322062Y-82860361D01*
X91285001Y-82972203D01*
X91285001Y-82972204D01*
X91285000Y-82972204D01*
X91274500Y-83074983D01*
X91274500Y-83850001D01*
X91274501Y-83850019D01*
X91285000Y-83952796D01*
X91285001Y-83952799D01*
X91340185Y-84119331D01*
X91340187Y-84119336D01*
X91355539Y-84144225D01*
X91432288Y-84268656D01*
X91556344Y-84392712D01*
X91558700Y-84394165D01*
X91559653Y-84394753D01*
X91561445Y-84396746D01*
X91562011Y-84397193D01*
X91561934Y-84397289D01*
X91606379Y-84446699D01*
X91617603Y-84515661D01*
X91589761Y-84579744D01*
X91559665Y-84605826D01*
X91556660Y-84607679D01*
X91556655Y-84607683D01*
X91432684Y-84731654D01*
X91340643Y-84880875D01*
X91340641Y-84880880D01*
X91285494Y-85047302D01*
X91285493Y-85047309D01*
X91275000Y-85150013D01*
X91275000Y-85287500D01*
X96224999Y-85287500D01*
X96224999Y-85150028D01*
X96224998Y-85150013D01*
X96214505Y-85047302D01*
X96159358Y-84880880D01*
X96159356Y-84880875D01*
X96067315Y-84731654D01*
X95943344Y-84607683D01*
X95943341Y-84607681D01*
X95940339Y-84605829D01*
X95938713Y-84604021D01*
X95937677Y-84603202D01*
X95937817Y-84603024D01*
X95893617Y-84553880D01*
X95882397Y-84484917D01*
X95910243Y-84420836D01*
X95940344Y-84394754D01*
X95943656Y-84392712D01*
X96067712Y-84268656D01*
X96159814Y-84119334D01*
X96214999Y-83952797D01*
X96225500Y-83850009D01*
X96225499Y-83074992D01*
X96215227Y-82974440D01*
X96220389Y-82946672D01*
X96222403Y-82918508D01*
X96226688Y-82912782D01*
X96227996Y-82905751D01*
X96247351Y-82885181D01*
X96264275Y-82862575D01*
X96270975Y-82860075D01*
X96275877Y-82854867D01*
X96303278Y-82848027D01*
X96329739Y-82838158D01*
X96336727Y-82839678D01*
X96343667Y-82837946D01*
X96370419Y-82847007D01*
X96398012Y-82853010D01*
X96406169Y-82859116D01*
X96409843Y-82860361D01*
X96426266Y-82874161D01*
X96490479Y-82938374D01*
X96490489Y-82938385D01*
X96494819Y-82942715D01*
X96494820Y-82942716D01*
X96606624Y-83054520D01*
X96686266Y-83100501D01*
X96743555Y-83133577D01*
X96896283Y-83174501D01*
X96896286Y-83174501D01*
X97061993Y-83174501D01*
X97062009Y-83174500D01*
X97589003Y-83174500D01*
X97618443Y-83183144D01*
X97648430Y-83189668D01*
X97653445Y-83193422D01*
X97656042Y-83194185D01*
X97676684Y-83210819D01*
X97699681Y-83233816D01*
X97733166Y-83295139D01*
X97736000Y-83321497D01*
X97736000Y-84287330D01*
X97735999Y-84287348D01*
X97735999Y-84453054D01*
X97735998Y-84453054D01*
X97735999Y-84453057D01*
X97776923Y-84605785D01*
X97777559Y-84606886D01*
X97777792Y-84607290D01*
X97777790Y-84607290D01*
X97777798Y-84607300D01*
X97855977Y-84742712D01*
X97855981Y-84742717D01*
X97974849Y-84861585D01*
X97974855Y-84861590D01*
X98238181Y-85124916D01*
X98271666Y-85186239D01*
X98274500Y-85212597D01*
X98274500Y-85862402D01*
X98254815Y-85929441D01*
X98238181Y-85950083D01*
X97556981Y-86631282D01*
X97556979Y-86631285D01*
X97535136Y-86669119D01*
X97506860Y-86718095D01*
X97477923Y-86768215D01*
X97477779Y-86768749D01*
X97473527Y-86776157D01*
X97453791Y-86795066D01*
X97436632Y-86816327D01*
X97426128Y-86821571D01*
X97423077Y-86824495D01*
X97418472Y-86825394D01*
X97404996Y-86832123D01*
X97380667Y-86840185D01*
X97231342Y-86932289D01*
X97107288Y-87056343D01*
X97107283Y-87056349D01*
X97105241Y-87059661D01*
X97103247Y-87061453D01*
X97102807Y-87062011D01*
X97102711Y-87061935D01*
X97053291Y-87106383D01*
X96984328Y-87117602D01*
X96920247Y-87089755D01*
X96894168Y-87059656D01*
X96892319Y-87056659D01*
X96892316Y-87056655D01*
X96768345Y-86932684D01*
X96619124Y-86840643D01*
X96619119Y-86840641D01*
X96452697Y-86785494D01*
X96452690Y-86785493D01*
X96349986Y-86775000D01*
X96212500Y-86775000D01*
X96212500Y-88774500D01*
X96192815Y-88841539D01*
X96140011Y-88887294D01*
X96088500Y-88898500D01*
X95836500Y-88898500D01*
X95769461Y-88878815D01*
X95723706Y-88826011D01*
X95712500Y-88774500D01*
X95712500Y-88250000D01*
X94875001Y-88250000D01*
X94875001Y-88524986D01*
X94885494Y-88627697D01*
X94940641Y-88794119D01*
X94940643Y-88794124D01*
X95015003Y-88914680D01*
X95022810Y-88943214D01*
X95033148Y-88970930D01*
X95031928Y-88976537D01*
X95033443Y-88982073D01*
X95024585Y-89010295D01*
X95018297Y-89039203D01*
X95013501Y-89045609D01*
X95012520Y-89048736D01*
X94997146Y-89067458D01*
X94934320Y-89130284D01*
X94934319Y-89130284D01*
X94934318Y-89130285D01*
X94934318Y-89130286D01*
X94745617Y-89318986D01*
X94684294Y-89352471D01*
X94618932Y-89349011D01*
X94502697Y-89310494D01*
X94502690Y-89310493D01*
X94399986Y-89300000D01*
X94250000Y-89300000D01*
X94250000Y-90250000D01*
X94374500Y-90250000D01*
X94441539Y-90269685D01*
X94487294Y-90322489D01*
X94498500Y-90374000D01*
X94498500Y-90626000D01*
X94478815Y-90693039D01*
X94426011Y-90738794D01*
X94374500Y-90750000D01*
X92900001Y-90750000D01*
X92900001Y-90999986D01*
X92910494Y-91102697D01*
X92954831Y-91236496D01*
X92957233Y-91306324D01*
X92921501Y-91366366D01*
X92858981Y-91397559D01*
X92837125Y-91399500D01*
X86775985Y-91399500D01*
X86708946Y-91379815D01*
X86663191Y-91327011D01*
X86653247Y-91257853D01*
X86682272Y-91194297D01*
X86701674Y-91176233D01*
X86767190Y-91127186D01*
X86853350Y-91012093D01*
X86853354Y-91012086D01*
X86903596Y-90877379D01*
X86903598Y-90877372D01*
X86909999Y-90817844D01*
X86910000Y-90817827D01*
X86910000Y-90520000D01*
X83400000Y-90520000D01*
X83400000Y-90817844D01*
X83406401Y-90877372D01*
X83406403Y-90877379D01*
X83456645Y-91012086D01*
X83456649Y-91012093D01*
X83542809Y-91127186D01*
X83608326Y-91176233D01*
X83650197Y-91232167D01*
X83655181Y-91301859D01*
X83621696Y-91363182D01*
X83560372Y-91396666D01*
X83534015Y-91399500D01*
X79685098Y-91399500D01*
X79618059Y-91379815D01*
X79597417Y-91363181D01*
X79291818Y-91057582D01*
X79258333Y-90996259D01*
X79255499Y-90969901D01*
X79255499Y-90269998D01*
X79255498Y-90269981D01*
X79244999Y-90167203D01*
X79244998Y-90167200D01*
X79211795Y-90066999D01*
X79205501Y-90027995D01*
X79205501Y-89722155D01*
X83400000Y-89722155D01*
X83400000Y-90020000D01*
X84905000Y-90020000D01*
X85405000Y-90020000D01*
X86910000Y-90020000D01*
X86910000Y-90000013D01*
X92900000Y-90000013D01*
X92900000Y-90250000D01*
X93750000Y-90250000D01*
X93750000Y-89300000D01*
X93600027Y-89300000D01*
X93600012Y-89300001D01*
X93497302Y-89310494D01*
X93330880Y-89365641D01*
X93330875Y-89365643D01*
X93181654Y-89457684D01*
X93057684Y-89581654D01*
X92965643Y-89730875D01*
X92965641Y-89730880D01*
X92910494Y-89897302D01*
X92910493Y-89897309D01*
X92900000Y-90000013D01*
X86910000Y-90000013D01*
X86910000Y-89722172D01*
X86909999Y-89722155D01*
X86903598Y-89662627D01*
X86903596Y-89662620D01*
X86853354Y-89527913D01*
X86853350Y-89527906D01*
X86767190Y-89412812D01*
X86767187Y-89412809D01*
X86652093Y-89326649D01*
X86652086Y-89326645D01*
X86517379Y-89276403D01*
X86517372Y-89276401D01*
X86457844Y-89270000D01*
X85405000Y-89270000D01*
X85405000Y-90020000D01*
X84905000Y-90020000D01*
X84905000Y-89270000D01*
X83852155Y-89270000D01*
X83792627Y-89276401D01*
X83792620Y-89276403D01*
X83657913Y-89326645D01*
X83657906Y-89326649D01*
X83542812Y-89412809D01*
X83542809Y-89412812D01*
X83456649Y-89527906D01*
X83456645Y-89527913D01*
X83406403Y-89662620D01*
X83406401Y-89662627D01*
X83400000Y-89722155D01*
X79205501Y-89722155D01*
X79205501Y-89419207D01*
X79225186Y-89352168D01*
X79230227Y-89344906D01*
X79290097Y-89264931D01*
X79340392Y-89130083D01*
X79346801Y-89070473D01*
X79346800Y-87857128D01*
X79340392Y-87797517D01*
X79322669Y-87750000D01*
X79290098Y-87662671D01*
X79290094Y-87662664D01*
X79203848Y-87547455D01*
X79203845Y-87547452D01*
X79088636Y-87461206D01*
X79088629Y-87461202D01*
X78953787Y-87410910D01*
X78953786Y-87410909D01*
X78953784Y-87410909D01*
X78894174Y-87404500D01*
X78894164Y-87404500D01*
X78315830Y-87404500D01*
X78315824Y-87404501D01*
X78256217Y-87410908D01*
X78121372Y-87461202D01*
X78121365Y-87461206D01*
X78006156Y-87547452D01*
X78006153Y-87547455D01*
X77919907Y-87662664D01*
X77919903Y-87662671D01*
X77869609Y-87797517D01*
X77863202Y-87857116D01*
X77863202Y-87857123D01*
X77863201Y-87857135D01*
X77863201Y-89070470D01*
X77863202Y-89070476D01*
X77869609Y-89130083D01*
X77919903Y-89264928D01*
X77919905Y-89264931D01*
X77979767Y-89344896D01*
X77987505Y-89365643D01*
X77999478Y-89384272D01*
X78002629Y-89406187D01*
X78004185Y-89410359D01*
X78004501Y-89419207D01*
X78004501Y-89445500D01*
X77984816Y-89512539D01*
X77932012Y-89558294D01*
X77880502Y-89569500D01*
X77754999Y-89569500D01*
X77754980Y-89569501D01*
X77652203Y-89580000D01*
X77652200Y-89580001D01*
X77485668Y-89635185D01*
X77485663Y-89635187D01*
X77336342Y-89727289D01*
X77242681Y-89820951D01*
X77234735Y-89825289D01*
X77229310Y-89832537D01*
X77204550Y-89841771D01*
X77181358Y-89854436D01*
X77172328Y-89853790D01*
X77163846Y-89856954D01*
X77138025Y-89851337D01*
X77111666Y-89849452D01*
X77102612Y-89843633D01*
X77095573Y-89842102D01*
X77067319Y-89820951D01*
X76974090Y-89727722D01*
X76940605Y-89666399D01*
X76945589Y-89596707D01*
X76987461Y-89540774D01*
X77048523Y-89516751D01*
X77053677Y-89516197D01*
X77053678Y-89516196D01*
X77188385Y-89465954D01*
X77188392Y-89465950D01*
X77303486Y-89379790D01*
X77303489Y-89379787D01*
X77389649Y-89264693D01*
X77389653Y-89264686D01*
X77439895Y-89129979D01*
X77439897Y-89129972D01*
X77446298Y-89070444D01*
X77446299Y-89070427D01*
X77446299Y-88705100D01*
X75963699Y-88705100D01*
X75963699Y-89070444D01*
X75970100Y-89129972D01*
X75970102Y-89129979D01*
X76020344Y-89264686D01*
X76020346Y-89264689D01*
X76100072Y-89371188D01*
X76104780Y-89383810D01*
X76113600Y-89393989D01*
X76116751Y-89415904D01*
X76124490Y-89436652D01*
X76121626Y-89449814D01*
X76123544Y-89463147D01*
X76114345Y-89483288D01*
X76109639Y-89504926D01*
X76100114Y-89514450D01*
X76094519Y-89526703D01*
X76075889Y-89538675D01*
X76060234Y-89554331D01*
X76045792Y-89558017D01*
X76035741Y-89564477D01*
X76000806Y-89569500D01*
X75855097Y-89569500D01*
X75788058Y-89549815D01*
X75767416Y-89533181D01*
X74091390Y-87857155D01*
X75963699Y-87857155D01*
X75963699Y-88222500D01*
X76463699Y-88222500D01*
X76946299Y-88222500D01*
X77446299Y-88222500D01*
X77446299Y-87857172D01*
X77446298Y-87857155D01*
X77439897Y-87797627D01*
X77439895Y-87797620D01*
X77389653Y-87662913D01*
X77389649Y-87662906D01*
X77303489Y-87547812D01*
X77303486Y-87547809D01*
X77188392Y-87461649D01*
X77188385Y-87461645D01*
X77053678Y-87411403D01*
X77053671Y-87411401D01*
X76994143Y-87405000D01*
X76946299Y-87405000D01*
X76946299Y-88222500D01*
X76463699Y-88222500D01*
X76463699Y-87405000D01*
X76415854Y-87405000D01*
X76356326Y-87411401D01*
X76356319Y-87411403D01*
X76221612Y-87461645D01*
X76221605Y-87461649D01*
X76106511Y-87547809D01*
X76106508Y-87547812D01*
X76020348Y-87662906D01*
X76020344Y-87662913D01*
X75970102Y-87797620D01*
X75970100Y-87797627D01*
X75963699Y-87857155D01*
X74091390Y-87857155D01*
X73416370Y-87182135D01*
X80089500Y-87182135D01*
X80089500Y-88277870D01*
X80089501Y-88277876D01*
X80095908Y-88337483D01*
X80146202Y-88472328D01*
X80146206Y-88472335D01*
X80232452Y-88587544D01*
X80232455Y-88587547D01*
X80347664Y-88673793D01*
X80347671Y-88673797D01*
X80482517Y-88724091D01*
X80482516Y-88724091D01*
X80489444Y-88724835D01*
X80542127Y-88730500D01*
X83147872Y-88730499D01*
X83207483Y-88724091D01*
X83342331Y-88673796D01*
X83457546Y-88587546D01*
X83543796Y-88472331D01*
X83594091Y-88337483D01*
X83600500Y-88277873D01*
X83600499Y-87475013D01*
X94875000Y-87475013D01*
X94875000Y-87750000D01*
X95712500Y-87750000D01*
X95712500Y-86774585D01*
X95679512Y-86714173D01*
X95684496Y-86644481D01*
X95726368Y-86588548D01*
X95761676Y-86570108D01*
X95794122Y-86559356D01*
X95794124Y-86559356D01*
X95943345Y-86467315D01*
X96067315Y-86343345D01*
X96159356Y-86194124D01*
X96159358Y-86194119D01*
X96214505Y-86027697D01*
X96214506Y-86027690D01*
X96224999Y-85924986D01*
X96225000Y-85924973D01*
X96225000Y-85787500D01*
X95250000Y-85787500D01*
X95250000Y-86624999D01*
X95263197Y-86638196D01*
X95285292Y-86644684D01*
X95331047Y-86697488D01*
X95340991Y-86766646D01*
X95311966Y-86830202D01*
X95283350Y-86854538D01*
X95156654Y-86932684D01*
X95032684Y-87056654D01*
X94940643Y-87205875D01*
X94940641Y-87205880D01*
X94885494Y-87372302D01*
X94885493Y-87372309D01*
X94875000Y-87475013D01*
X83600499Y-87475013D01*
X83600499Y-87182128D01*
X83594798Y-87129091D01*
X83594091Y-87122516D01*
X83562019Y-87036527D01*
X83557035Y-86966835D01*
X83590518Y-86905515D01*
X84571048Y-85924986D01*
X91275001Y-85924986D01*
X91285494Y-86027697D01*
X91340641Y-86194119D01*
X91340643Y-86194124D01*
X91432684Y-86343345D01*
X91556654Y-86467315D01*
X91705875Y-86559356D01*
X91705880Y-86559358D01*
X91872302Y-86614505D01*
X91872309Y-86614506D01*
X91975019Y-86624999D01*
X92249999Y-86624999D01*
X92750000Y-86624999D01*
X93024972Y-86624999D01*
X93024986Y-86624998D01*
X93127697Y-86614505D01*
X93294119Y-86559358D01*
X93294124Y-86559356D01*
X93443345Y-86467315D01*
X93567315Y-86343345D01*
X93644461Y-86218273D01*
X93696409Y-86171549D01*
X93765372Y-86160326D01*
X93829454Y-86188170D01*
X93855539Y-86218273D01*
X93932684Y-86343345D01*
X94056654Y-86467315D01*
X94205875Y-86559356D01*
X94205880Y-86559358D01*
X94372302Y-86614505D01*
X94372309Y-86614506D01*
X94475019Y-86624999D01*
X94749999Y-86624999D01*
X94750000Y-86624998D01*
X94750000Y-85787500D01*
X92750000Y-85787500D01*
X92750000Y-86624999D01*
X92249999Y-86624999D01*
X92250000Y-86624998D01*
X92250000Y-85787500D01*
X91275001Y-85787500D01*
X91275001Y-85924986D01*
X84571048Y-85924986D01*
X85359016Y-85137018D01*
X85420339Y-85103533D01*
X85446697Y-85100699D01*
X85983471Y-85100699D01*
X85983472Y-85100699D01*
X86043083Y-85094291D01*
X86177931Y-85043996D01*
X86293146Y-84957746D01*
X86379396Y-84842531D01*
X86429691Y-84707683D01*
X86436100Y-84648073D01*
X86436099Y-83891928D01*
X86429691Y-83832317D01*
X86413714Y-83789481D01*
X86379397Y-83697471D01*
X86379393Y-83697464D01*
X86293147Y-83582255D01*
X86293144Y-83582252D01*
X86177935Y-83496006D01*
X86177928Y-83496002D01*
X86043082Y-83445708D01*
X86043083Y-83445708D01*
X85983483Y-83439301D01*
X85983481Y-83439300D01*
X85983473Y-83439300D01*
X85983464Y-83439300D01*
X84770129Y-83439300D01*
X84770123Y-83439301D01*
X84710516Y-83445708D01*
X84575671Y-83496002D01*
X84575664Y-83496006D01*
X84460455Y-83582252D01*
X84460452Y-83582255D01*
X84374206Y-83697464D01*
X84374202Y-83697471D01*
X84323908Y-83832317D01*
X84319212Y-83876000D01*
X84317501Y-83891923D01*
X84317500Y-83891935D01*
X84317500Y-84428702D01*
X84297815Y-84495741D01*
X84281181Y-84516383D01*
X82104382Y-86693181D01*
X82043059Y-86726666D01*
X82016701Y-86729500D01*
X80542129Y-86729500D01*
X80542123Y-86729501D01*
X80482516Y-86735908D01*
X80347671Y-86786202D01*
X80347664Y-86786206D01*
X80232455Y-86872452D01*
X80232452Y-86872455D01*
X80146206Y-86987664D01*
X80146202Y-86987671D01*
X80095908Y-87122517D01*
X80089551Y-87181654D01*
X80089501Y-87182123D01*
X80089500Y-87182135D01*
X73416370Y-87182135D01*
X69709218Y-83474983D01*
X72874500Y-83474983D01*
X72874500Y-84525001D01*
X72874501Y-84525019D01*
X72885000Y-84627796D01*
X72885001Y-84627799D01*
X72940185Y-84794331D01*
X72940187Y-84794336D01*
X72966811Y-84837500D01*
X73032288Y-84943656D01*
X73156344Y-85067712D01*
X73305666Y-85159814D01*
X73472203Y-85214999D01*
X73574991Y-85225500D01*
X74287402Y-85225499D01*
X74354441Y-85245183D01*
X74375083Y-85261818D01*
X75553839Y-86440574D01*
X75553849Y-86440585D01*
X75558179Y-86444915D01*
X75558180Y-86444916D01*
X75669984Y-86556720D01*
X75756795Y-86606839D01*
X75756797Y-86606841D01*
X75806913Y-86635776D01*
X75806915Y-86635777D01*
X75959642Y-86676700D01*
X75959643Y-86676700D01*
X76808978Y-86676700D01*
X76876017Y-86696385D01*
X76921772Y-86749189D01*
X76925160Y-86757367D01*
X76969902Y-86877328D01*
X76969906Y-86877335D01*
X77056152Y-86992544D01*
X77056155Y-86992547D01*
X77171364Y-87078793D01*
X77171371Y-87078797D01*
X77216318Y-87095561D01*
X77306217Y-87129091D01*
X77365827Y-87135500D01*
X77944172Y-87135499D01*
X78003783Y-87129091D01*
X78138631Y-87078796D01*
X78253846Y-86992546D01*
X78340096Y-86877331D01*
X78390391Y-86742483D01*
X78396800Y-86682873D01*
X78396799Y-86234995D01*
X78416483Y-86167957D01*
X78433113Y-86147320D01*
X79673617Y-84906819D01*
X79734940Y-84873334D01*
X79761298Y-84870500D01*
X80889472Y-84870500D01*
X80956511Y-84890185D01*
X80988738Y-84920188D01*
X81016852Y-84957744D01*
X81016854Y-84957746D01*
X81132069Y-85043996D01*
X81132070Y-85043996D01*
X81132071Y-85043997D01*
X81266917Y-85094291D01*
X81266916Y-85094291D01*
X81273844Y-85095035D01*
X81326527Y-85100700D01*
X82539872Y-85100699D01*
X82599483Y-85094291D01*
X82734331Y-85043996D01*
X82849546Y-84957746D01*
X82935796Y-84842531D01*
X82986091Y-84707683D01*
X82992500Y-84648073D01*
X82992499Y-83891928D01*
X82986091Y-83832317D01*
X82970114Y-83789481D01*
X82935797Y-83697471D01*
X82935793Y-83697464D01*
X82849547Y-83582255D01*
X82849544Y-83582252D01*
X82734335Y-83496006D01*
X82734328Y-83496002D01*
X82599482Y-83445708D01*
X82599483Y-83445708D01*
X82539883Y-83439301D01*
X82539881Y-83439300D01*
X82539873Y-83439300D01*
X82539864Y-83439300D01*
X81326529Y-83439300D01*
X81326523Y-83439301D01*
X81266916Y-83445708D01*
X81132071Y-83496002D01*
X81132069Y-83496004D01*
X81016856Y-83582252D01*
X81016853Y-83582254D01*
X80988738Y-83619812D01*
X80932804Y-83661682D01*
X80889472Y-83669500D01*
X79547870Y-83669500D01*
X79547854Y-83669499D01*
X79540258Y-83669499D01*
X79382143Y-83669499D01*
X79319644Y-83686246D01*
X79229414Y-83710423D01*
X79229409Y-83710426D01*
X79092490Y-83789475D01*
X79092482Y-83789481D01*
X77901382Y-84980581D01*
X77840059Y-85014066D01*
X77813701Y-85016900D01*
X77365829Y-85016900D01*
X77365823Y-85016901D01*
X77306216Y-85023308D01*
X77171371Y-85073602D01*
X77171366Y-85073605D01*
X77165481Y-85078011D01*
X77100016Y-85102425D01*
X77031743Y-85087571D01*
X76982340Y-85038164D01*
X76967490Y-84969891D01*
X76985636Y-84913644D01*
X77059353Y-84794130D01*
X77059358Y-84794119D01*
X77114505Y-84627697D01*
X77114506Y-84627690D01*
X77124999Y-84524986D01*
X77125000Y-84524973D01*
X77125000Y-84250000D01*
X76161500Y-84250000D01*
X76094461Y-84230315D01*
X76048706Y-84177511D01*
X76037500Y-84126000D01*
X76037500Y-84000000D01*
X75911500Y-84000000D01*
X75844461Y-83980315D01*
X75798706Y-83927511D01*
X75787500Y-83876000D01*
X75787500Y-83750000D01*
X76287500Y-83750000D01*
X77124999Y-83750000D01*
X77124999Y-83475028D01*
X77124998Y-83475013D01*
X77114505Y-83372302D01*
X77059358Y-83205880D01*
X77059356Y-83205875D01*
X76967315Y-83056654D01*
X76843345Y-82932684D01*
X76694124Y-82840643D01*
X76694119Y-82840641D01*
X76527697Y-82785494D01*
X76527690Y-82785493D01*
X76424986Y-82775000D01*
X76287500Y-82775000D01*
X76287500Y-83750000D01*
X75787500Y-83750000D01*
X75787500Y-82775000D01*
X75650027Y-82775000D01*
X75650012Y-82775001D01*
X75547302Y-82785494D01*
X75380880Y-82840641D01*
X75380875Y-82840643D01*
X75231654Y-82932684D01*
X75107683Y-83056655D01*
X75107679Y-83056660D01*
X75105826Y-83059665D01*
X75104018Y-83061290D01*
X75103202Y-83062323D01*
X75103025Y-83062183D01*
X75053874Y-83106385D01*
X74984911Y-83117601D01*
X74920831Y-83089752D01*
X74894753Y-83059653D01*
X74894737Y-83059628D01*
X74892712Y-83056344D01*
X74768656Y-82932288D01*
X74652043Y-82860361D01*
X74619336Y-82840187D01*
X74619331Y-82840185D01*
X74581047Y-82827499D01*
X74452797Y-82785001D01*
X74452795Y-82785000D01*
X74350010Y-82774500D01*
X73574998Y-82774500D01*
X73574980Y-82774501D01*
X73472203Y-82785000D01*
X73472200Y-82785001D01*
X73305668Y-82840185D01*
X73305663Y-82840187D01*
X73156342Y-82932289D01*
X73032289Y-83056342D01*
X72940187Y-83205663D01*
X72940185Y-83205668D01*
X72940115Y-83205880D01*
X72885001Y-83372203D01*
X72885001Y-83372204D01*
X72885000Y-83372204D01*
X72874500Y-83474983D01*
X69709218Y-83474983D01*
X68301590Y-82067355D01*
X68301588Y-82067352D01*
X68182717Y-81948481D01*
X68182716Y-81948480D01*
X68092240Y-81896244D01*
X72486999Y-81896244D01*
X72493400Y-81955772D01*
X72493402Y-81955779D01*
X72543644Y-82090486D01*
X72543648Y-82090493D01*
X72629808Y-82205587D01*
X72629811Y-82205590D01*
X72744905Y-82291750D01*
X72744912Y-82291754D01*
X72879619Y-82341996D01*
X72879626Y-82341998D01*
X72939154Y-82348399D01*
X72939171Y-82348400D01*
X73486999Y-82348400D01*
X73986999Y-82348400D01*
X74534827Y-82348400D01*
X74534843Y-82348399D01*
X74594371Y-82341998D01*
X74594378Y-82341996D01*
X74729085Y-82291754D01*
X74729092Y-82291750D01*
X74844186Y-82205590D01*
X74844189Y-82205587D01*
X74930349Y-82090493D01*
X74930353Y-82090486D01*
X74980595Y-81955779D01*
X74980597Y-81955772D01*
X74986998Y-81896244D01*
X74986999Y-81896227D01*
X74986999Y-81648400D01*
X73986999Y-81648400D01*
X73986999Y-82348400D01*
X73486999Y-82348400D01*
X73486999Y-81648400D01*
X72486999Y-81648400D01*
X72486999Y-81896244D01*
X68092240Y-81896244D01*
X68089593Y-81894716D01*
X68089592Y-81894715D01*
X68057522Y-81876200D01*
X68045785Y-81869423D01*
X68045784Y-81869422D01*
X68045783Y-81869422D01*
X67989881Y-81854443D01*
X67893057Y-81828499D01*
X67816291Y-81828499D01*
X67814406Y-81827945D01*
X67812507Y-81828441D01*
X67781022Y-81818143D01*
X67749252Y-81808814D01*
X67747966Y-81807330D01*
X67746099Y-81806720D01*
X67725169Y-81781021D01*
X67703497Y-81756010D01*
X67703217Y-81754067D01*
X67701977Y-81752544D01*
X67698265Y-81719628D01*
X67693553Y-81686852D01*
X67694299Y-81684447D01*
X67694149Y-81683115D01*
X67702111Y-81659268D01*
X67705121Y-81649569D01*
X67705464Y-81648873D01*
X67751557Y-81558412D01*
X67817246Y-81356243D01*
X67850500Y-81146287D01*
X67850500Y-80933713D01*
X67817246Y-80723757D01*
X67803506Y-80681473D01*
X67801512Y-80611635D01*
X67833755Y-80555478D01*
X69354017Y-79035219D01*
X69415340Y-79001734D01*
X69441698Y-78998900D01*
X72422858Y-78998900D01*
X72442058Y-79004537D01*
X72462057Y-79005259D01*
X72474897Y-79014180D01*
X72489897Y-79018585D01*
X72502999Y-79033705D01*
X72519436Y-79045126D01*
X72531959Y-79067127D01*
X72535652Y-79071389D01*
X72537435Y-79075486D01*
X72538265Y-79077492D01*
X72543203Y-79090731D01*
X72544412Y-79092346D01*
X72547987Y-79100985D01*
X72551028Y-79129365D01*
X72557093Y-79157259D01*
X72554839Y-79164932D01*
X72555432Y-79170457D01*
X72550082Y-79181134D01*
X72545310Y-79197389D01*
X72546302Y-79197759D01*
X72492907Y-79340917D01*
X72491931Y-79350000D01*
X72486500Y-79400523D01*
X72486499Y-79400535D01*
X72486499Y-80396270D01*
X72486500Y-80396276D01*
X72492907Y-80455883D01*
X72546302Y-80599041D01*
X72544732Y-80599626D01*
X72557382Y-80657767D01*
X72545686Y-80697606D01*
X72546745Y-80698001D01*
X72493402Y-80841020D01*
X72493400Y-80841027D01*
X72486999Y-80900555D01*
X72486999Y-81148400D01*
X74986999Y-81148400D01*
X74986999Y-80900572D01*
X74986998Y-80900555D01*
X74980597Y-80841027D01*
X74980596Y-80841023D01*
X74927252Y-80698002D01*
X74929066Y-80697325D01*
X74916615Y-80640074D01*
X74928569Y-80599366D01*
X74927695Y-80599040D01*
X74930793Y-80590733D01*
X74930795Y-80590731D01*
X74981090Y-80455883D01*
X74987499Y-80396273D01*
X74987498Y-79400528D01*
X74981090Y-79340917D01*
X74930795Y-79206069D01*
X74930793Y-79206066D01*
X74927695Y-79197760D01*
X74929425Y-79197114D01*
X74916901Y-79139563D01*
X74928690Y-79099411D01*
X74927695Y-79099040D01*
X74930793Y-79090733D01*
X74930795Y-79090731D01*
X74981090Y-78955883D01*
X74987499Y-78896273D01*
X74987498Y-77900528D01*
X74981090Y-77840917D01*
X74930795Y-77706069D01*
X74930793Y-77706066D01*
X74927695Y-77697760D01*
X74929425Y-77697114D01*
X74916901Y-77639563D01*
X74928690Y-77599411D01*
X74927695Y-77599040D01*
X74930793Y-77590733D01*
X74930795Y-77590731D01*
X74981090Y-77455883D01*
X74987499Y-77396273D01*
X74987498Y-76400528D01*
X74981090Y-76340917D01*
X74930795Y-76206069D01*
X74930793Y-76206066D01*
X74927695Y-76197760D01*
X74929425Y-76197114D01*
X74916901Y-76139563D01*
X74928690Y-76099411D01*
X74927695Y-76099040D01*
X74930793Y-76090733D01*
X74930795Y-76090731D01*
X74981090Y-75955883D01*
X74987499Y-75896273D01*
X74987498Y-74900528D01*
X74981090Y-74840917D01*
X74930795Y-74706069D01*
X74930793Y-74706066D01*
X74927695Y-74697760D01*
X74929425Y-74697114D01*
X74916901Y-74639563D01*
X74928690Y-74599411D01*
X74927695Y-74599040D01*
X74930793Y-74590733D01*
X74930795Y-74590731D01*
X74981090Y-74455883D01*
X74987499Y-74396273D01*
X74987498Y-73400528D01*
X74981090Y-73340917D01*
X74930795Y-73206069D01*
X74930793Y-73206066D01*
X74927695Y-73197760D01*
X74929425Y-73197114D01*
X74916901Y-73139563D01*
X74928690Y-73099411D01*
X74927695Y-73099040D01*
X74930793Y-73090733D01*
X74930795Y-73090731D01*
X74981090Y-72955883D01*
X74987499Y-72896273D01*
X74987498Y-71900528D01*
X74981090Y-71840917D01*
X74930795Y-71706069D01*
X74930793Y-71706066D01*
X74927695Y-71697760D01*
X74929425Y-71697114D01*
X74916901Y-71639563D01*
X74928690Y-71599411D01*
X74927695Y-71599040D01*
X74930793Y-71590733D01*
X74930795Y-71590731D01*
X74981090Y-71455883D01*
X74987499Y-71396273D01*
X74987498Y-70850495D01*
X74996144Y-70821049D01*
X75002666Y-70791069D01*
X75006418Y-70786055D01*
X75007182Y-70783457D01*
X75023812Y-70762820D01*
X75146505Y-70640128D01*
X75146510Y-70640124D01*
X75156713Y-70629920D01*
X75156715Y-70629920D01*
X75268519Y-70518116D01*
X75336408Y-70400528D01*
X75347576Y-70381185D01*
X75388500Y-70228457D01*
X75388500Y-70070343D01*
X75388500Y-70062748D01*
X75388499Y-70062730D01*
X75388499Y-68624500D01*
X75408184Y-68557461D01*
X75460988Y-68511706D01*
X75512499Y-68500500D01*
X89949369Y-68500500D01*
X90016408Y-68520185D01*
G37*
%TD.AperFunction*%
%TA.AperFunction,Conductor*%
G36*
X103766942Y-81120185D02*
G01*
X103787584Y-81136819D01*
X105363181Y-82712416D01*
X105396666Y-82773739D01*
X105399500Y-82800097D01*
X105399500Y-84837125D01*
X105379815Y-84904164D01*
X105327011Y-84949919D01*
X105257853Y-84959863D01*
X105236496Y-84954831D01*
X105102697Y-84910494D01*
X105102690Y-84910493D01*
X104999986Y-84900000D01*
X104750000Y-84900000D01*
X104750000Y-87876000D01*
X104730315Y-87943039D01*
X104677511Y-87988794D01*
X104626000Y-88000000D01*
X104500000Y-88000000D01*
X104500000Y-88126000D01*
X104480315Y-88193039D01*
X104427511Y-88238794D01*
X104376000Y-88250000D01*
X103300000Y-88250000D01*
X103281430Y-88268570D01*
X103220107Y-88302054D01*
X103150415Y-88297069D01*
X103106069Y-88268569D01*
X103087500Y-88250000D01*
X102124000Y-88250000D01*
X102056961Y-88230315D01*
X102011206Y-88177511D01*
X102000000Y-88126000D01*
X102000000Y-88000000D01*
X101874000Y-88000000D01*
X101806961Y-87980315D01*
X101761206Y-87927511D01*
X101750000Y-87876000D01*
X101750000Y-86774999D01*
X101743931Y-86768930D01*
X101710446Y-86707607D01*
X101715430Y-86637915D01*
X101743931Y-86593568D01*
X101750000Y-86587499D01*
X101750000Y-85624000D01*
X101769685Y-85556961D01*
X101822489Y-85511206D01*
X101874000Y-85500000D01*
X102126000Y-85500000D01*
X102193039Y-85519685D01*
X102238794Y-85572489D01*
X102250000Y-85624000D01*
X102250000Y-86587499D01*
X102256069Y-86593568D01*
X102289554Y-86654891D01*
X102284570Y-86724583D01*
X102256070Y-86768929D01*
X102250000Y-86774999D01*
X102250000Y-87750000D01*
X103087498Y-87750000D01*
X103106067Y-87731431D01*
X103167390Y-87697945D01*
X103237081Y-87702929D01*
X103281430Y-87731430D01*
X103300000Y-87750000D01*
X104250000Y-87750000D01*
X104250000Y-84900000D01*
X104000029Y-84900000D01*
X104000012Y-84900001D01*
X103897302Y-84910494D01*
X103730880Y-84965641D01*
X103730875Y-84965643D01*
X103581654Y-85057684D01*
X103457683Y-85181655D01*
X103454536Y-85186758D01*
X103402587Y-85233481D01*
X103333624Y-85244701D01*
X103269543Y-85216856D01*
X103230688Y-85158786D01*
X103224999Y-85121658D01*
X103224999Y-85112528D01*
X103224998Y-85112512D01*
X103214505Y-85009802D01*
X103159358Y-84843380D01*
X103159356Y-84843375D01*
X103067315Y-84694154D01*
X102943344Y-84570183D01*
X102943341Y-84570181D01*
X102940339Y-84568329D01*
X102938713Y-84566521D01*
X102937677Y-84565702D01*
X102937817Y-84565524D01*
X102893617Y-84516380D01*
X102882397Y-84447417D01*
X102910243Y-84383336D01*
X102940344Y-84357254D01*
X102943656Y-84355212D01*
X103067712Y-84231156D01*
X103159814Y-84081834D01*
X103214999Y-83915297D01*
X103225500Y-83812509D01*
X103225499Y-83037492D01*
X103214999Y-82934703D01*
X103159814Y-82768166D01*
X103067712Y-82618844D01*
X102943656Y-82494788D01*
X102843194Y-82432823D01*
X102794336Y-82402687D01*
X102794331Y-82402685D01*
X102792862Y-82402198D01*
X102627797Y-82347501D01*
X102627795Y-82347500D01*
X102525016Y-82337000D01*
X102525009Y-82337000D01*
X101812598Y-82337000D01*
X101745559Y-82317315D01*
X101724917Y-82300681D01*
X101230956Y-81806720D01*
X100736415Y-81312180D01*
X100702931Y-81250858D01*
X100707915Y-81181167D01*
X100749787Y-81125233D01*
X100815251Y-81100816D01*
X100824097Y-81100500D01*
X103699903Y-81100500D01*
X103766942Y-81120185D01*
G37*
%TD.AperFunction*%
%TA.AperFunction,Conductor*%
G36*
X93829453Y-84114120D02*
G01*
X93855539Y-84144225D01*
X93913850Y-84238764D01*
X93932288Y-84268656D01*
X94056344Y-84392712D01*
X94058700Y-84394165D01*
X94059653Y-84394753D01*
X94061445Y-84396746D01*
X94062011Y-84397193D01*
X94061934Y-84397289D01*
X94106379Y-84446699D01*
X94117603Y-84515661D01*
X94089761Y-84579744D01*
X94059665Y-84605826D01*
X94056660Y-84607679D01*
X94056655Y-84607683D01*
X93932683Y-84731655D01*
X93932680Y-84731659D01*
X93855538Y-84856726D01*
X93803590Y-84903451D01*
X93734628Y-84914672D01*
X93670546Y-84886829D01*
X93644462Y-84856726D01*
X93567319Y-84731659D01*
X93567316Y-84731655D01*
X93443344Y-84607683D01*
X93443341Y-84607681D01*
X93440339Y-84605829D01*
X93438713Y-84604021D01*
X93437677Y-84603202D01*
X93437817Y-84603024D01*
X93393617Y-84553880D01*
X93382397Y-84484917D01*
X93410243Y-84420836D01*
X93440344Y-84394754D01*
X93443656Y-84392712D01*
X93567712Y-84268656D01*
X93644461Y-84144224D01*
X93696409Y-84097500D01*
X93765371Y-84086277D01*
X93829453Y-84114120D01*
G37*
%TD.AperFunction*%
%TA.AperFunction,Conductor*%
G36*
X100778826Y-84067999D02*
G01*
X100781187Y-84067705D01*
X100810690Y-84081844D01*
X100840724Y-84094894D01*
X100842716Y-84097193D01*
X100844195Y-84097902D01*
X100866808Y-84124996D01*
X100932288Y-84231156D01*
X101056344Y-84355212D01*
X101059628Y-84357237D01*
X101059653Y-84357253D01*
X101061445Y-84359246D01*
X101062011Y-84359693D01*
X101061934Y-84359789D01*
X101106379Y-84409199D01*
X101117603Y-84478161D01*
X101089761Y-84542244D01*
X101059665Y-84568326D01*
X101056660Y-84570179D01*
X101056655Y-84570183D01*
X100932683Y-84694155D01*
X100932680Y-84694159D01*
X100844266Y-84837501D01*
X100792318Y-84884226D01*
X100723356Y-84895447D01*
X100659274Y-84867604D01*
X100633189Y-84837500D01*
X100629238Y-84831095D01*
X100567712Y-84731344D01*
X100443656Y-84607288D01*
X100440342Y-84605243D01*
X100438546Y-84603248D01*
X100437989Y-84602807D01*
X100438064Y-84602711D01*
X100393618Y-84553297D01*
X100382397Y-84484334D01*
X100410240Y-84420252D01*
X100440348Y-84394165D01*
X100443342Y-84392318D01*
X100567317Y-84268343D01*
X100655732Y-84124999D01*
X100657502Y-84123406D01*
X100658215Y-84121136D01*
X100683344Y-84100162D01*
X100707680Y-84078274D01*
X100710028Y-84077891D01*
X100711857Y-84076366D01*
X100744334Y-84072308D01*
X100776642Y-84067051D01*
X100778826Y-84067999D01*
G37*
%TD.AperFunction*%
%TA.AperFunction,Conductor*%
G36*
X99867942Y-82146185D02*
G01*
X99888584Y-82162819D01*
X99889084Y-82163319D01*
X99922569Y-82224642D01*
X99917585Y-82294334D01*
X99875713Y-82350267D01*
X99810249Y-82374684D01*
X99801403Y-82375000D01*
X99750000Y-82375000D01*
X99750000Y-83338500D01*
X99730315Y-83405539D01*
X99677511Y-83451294D01*
X99626000Y-83462500D01*
X99374000Y-83462500D01*
X99306961Y-83442815D01*
X99261206Y-83390011D01*
X99250000Y-83338500D01*
X99250000Y-82375000D01*
X98975029Y-82375000D01*
X98975012Y-82375001D01*
X98872302Y-82385494D01*
X98702692Y-82441697D01*
X98687125Y-82442232D01*
X98672534Y-82447675D01*
X98652923Y-82443408D01*
X98632863Y-82444099D01*
X98618537Y-82435928D01*
X98604261Y-82432823D01*
X98576007Y-82411672D01*
X98502517Y-82338182D01*
X98469032Y-82276859D01*
X98474016Y-82207167D01*
X98515888Y-82151234D01*
X98581352Y-82126817D01*
X98590198Y-82126501D01*
X98753493Y-82126501D01*
X98753509Y-82126500D01*
X99800903Y-82126500D01*
X99867942Y-82146185D01*
G37*
%TD.AperFunction*%
%TA.AperFunction,Conductor*%
G36*
X93668334Y-77320904D02*
G01*
X93724267Y-77362776D01*
X93748684Y-77428240D01*
X93749000Y-77437086D01*
X93749000Y-81762830D01*
X93748999Y-81762848D01*
X93748999Y-81928554D01*
X93748998Y-81928554D01*
X93748999Y-81928557D01*
X93789923Y-82081285D01*
X93816028Y-82126500D01*
X93816028Y-82126501D01*
X93868975Y-82218209D01*
X93868981Y-82218217D01*
X93987849Y-82337085D01*
X93987855Y-82337090D01*
X94032017Y-82381252D01*
X94065502Y-82442575D01*
X94060518Y-82512267D01*
X94032018Y-82556614D01*
X93932287Y-82656345D01*
X93855539Y-82780775D01*
X93803591Y-82827499D01*
X93734628Y-82838722D01*
X93670546Y-82810878D01*
X93644461Y-82780775D01*
X93624699Y-82748735D01*
X93567712Y-82656344D01*
X93443656Y-82532288D01*
X93299558Y-82443408D01*
X93294336Y-82440187D01*
X93294335Y-82440186D01*
X93294334Y-82440186D01*
X93208285Y-82411672D01*
X93185495Y-82404120D01*
X93128050Y-82364347D01*
X93101228Y-82299831D01*
X93100500Y-82286414D01*
X93100500Y-77837586D01*
X93120185Y-77770547D01*
X93136819Y-77749905D01*
X93537319Y-77349405D01*
X93598642Y-77315920D01*
X93668334Y-77320904D01*
G37*
%TD.AperFunction*%
%TA.AperFunction,Conductor*%
G36*
X97655539Y-80519685D02*
G01*
X97701294Y-80572489D01*
X97712500Y-80624000D01*
X97712500Y-81724999D01*
X97805357Y-81724999D01*
X97946557Y-81715199D01*
X97978775Y-81722278D01*
X98011234Y-81728312D01*
X98012757Y-81729745D01*
X98014799Y-81730194D01*
X98042824Y-81751220D01*
X98053422Y-81761818D01*
X98060376Y-81774554D01*
X98062118Y-81776193D01*
X98062830Y-81779049D01*
X98086907Y-81823141D01*
X98081923Y-81892833D01*
X98040051Y-81948766D01*
X97974587Y-81973183D01*
X97965741Y-81973499D01*
X97802447Y-81973499D01*
X97802431Y-81973500D01*
X97275437Y-81973500D01*
X97208398Y-81953815D01*
X97187756Y-81937181D01*
X97181718Y-81931143D01*
X97148233Y-81869820D01*
X97153217Y-81800128D01*
X97181718Y-81755781D01*
X97212500Y-81724999D01*
X97212500Y-80624000D01*
X97232185Y-80556961D01*
X97284989Y-80511206D01*
X97336500Y-80500000D01*
X97588500Y-80500000D01*
X97655539Y-80519685D01*
G37*
%TD.AperFunction*%
%TD*%
M02*
