%TF.GenerationSoftware,KiCad,Pcbnew,9.0.7*%
%TF.CreationDate,2026-02-19T21:05:41-05:00*%
%TF.ProjectId,imu_esp_pcb,696d755f-6573-4705-9f70-63622e6b6963,rev?*%
%TF.SameCoordinates,Original*%
%TF.FileFunction,Paste,Top*%
%TF.FilePolarity,Positive*%
%FSLAX46Y46*%
G04 Gerber Fmt 4.6, Leading zero omitted, Abs format (unit mm)*
G04 Created by KiCad (PCBNEW 9.0.7) date 2026-02-19 21:05:41*
%MOMM*%
%LPD*%
G01*
G04 APERTURE LIST*
G04 Aperture macros list*
%AMRoundRect*
0 Rectangle with rounded corners*
0 $1 Rounding radius*
0 $2 $3 $4 $5 $6 $7 $8 $9 X,Y pos of 4 corners*
0 Add a 4 corners polygon primitive as box body*
4,1,4,$2,$3,$4,$5,$6,$7,$8,$9,$2,$3,0*
0 Add four circle primitives for the rounded corners*
1,1,$1+$1,$2,$3*
1,1,$1+$1,$4,$5*
1,1,$1+$1,$6,$7*
1,1,$1+$1,$8,$9*
0 Add four rect primitives between the rounded corners*
20,1,$1+$1,$2,$3,$4,$5,0*
20,1,$1+$1,$4,$5,$6,$7,0*
20,1,$1+$1,$6,$7,$8,$9,0*
20,1,$1+$1,$8,$9,$2,$3,0*%
G04 Aperture macros list end*
%ADD10R,1.117600X0.660400*%
%ADD11RoundRect,0.250000X-0.475000X0.337500X-0.475000X-0.337500X0.475000X-0.337500X0.475000X0.337500X0*%
%ADD12RoundRect,0.250000X-0.450000X0.350000X-0.450000X-0.350000X0.450000X-0.350000X0.450000X0.350000X0*%
%ADD13RoundRect,0.250000X-0.350000X-0.450000X0.350000X-0.450000X0.350000X0.450000X-0.350000X0.450000X0*%
%ADD14RoundRect,0.250000X0.450000X-0.350000X0.450000X0.350000X-0.450000X0.350000X-0.450000X-0.350000X0*%
%ADD15RoundRect,0.250000X-0.337500X-0.475000X0.337500X-0.475000X0.337500X0.475000X-0.337500X0.475000X0*%
%ADD16R,0.482600X1.117600*%
%ADD17R,2.510000X1.000000*%
%ADD18R,0.700000X0.700000*%
%ADD19R,1.500000X0.900000*%
%ADD20RoundRect,0.250000X0.337500X0.475000X-0.337500X0.475000X-0.337500X-0.475000X0.337500X-0.475000X0*%
%ADD21RoundRect,0.250000X0.350000X0.450000X-0.350000X0.450000X-0.350000X-0.450000X0.350000X-0.450000X0*%
%ADD22R,1.549400X0.990600*%
%ADD23RoundRect,0.250000X0.475000X-0.337500X0.475000X0.337500X-0.475000X0.337500X-0.475000X-0.337500X0*%
%ADD24R,0.254000X0.711200*%
%ADD25R,0.711200X0.254000*%
%ADD26R,2.641600X2.743200*%
G04 APERTURE END LIST*
D10*
%TO.C,U5*%
X85376800Y-84270000D03*
X81933200Y-84270000D03*
%TD*%
D11*
%TO.C,C4*%
X92500000Y-85537500D03*
X92500000Y-83462500D03*
%TD*%
D12*
%TO.C,R6*%
X94000000Y-70000000D03*
X94000000Y-72000000D03*
%TD*%
D13*
%TO.C,R5*%
X94000000Y-90500000D03*
X96000000Y-90500000D03*
%TD*%
D14*
%TO.C,R4*%
X104500000Y-88000000D03*
X104500000Y-86000000D03*
%TD*%
D15*
%TO.C,C9*%
X97462500Y-80500000D03*
X99537500Y-80500000D03*
%TD*%
D11*
%TO.C,C3*%
X102000000Y-83425000D03*
X102000000Y-85500000D03*
%TD*%
D16*
%TO.C,U4*%
X76704999Y-88463800D03*
X78605001Y-88463800D03*
X77655000Y-86076200D03*
%TD*%
D17*
%TO.C,J3*%
X81845000Y-87730000D03*
X85155000Y-90270000D03*
%TD*%
D13*
%TO.C,R3*%
X96000000Y-69500000D03*
X98000000Y-69500000D03*
%TD*%
D18*
%TO.C,U2*%
X82346999Y-74498400D03*
X82346999Y-75598400D03*
X82346999Y-76698400D03*
X83446999Y-74498400D03*
X83446999Y-75598400D03*
X83446999Y-76698400D03*
X84546999Y-74498400D03*
X84546999Y-75598400D03*
X84546999Y-76698400D03*
D19*
X73736999Y-69398400D03*
X73736999Y-70898400D03*
X73736999Y-72398400D03*
X73736999Y-73898400D03*
X73736999Y-75398400D03*
X73736999Y-76898400D03*
X73736999Y-78398400D03*
X73736999Y-79898400D03*
X73736999Y-81398400D03*
X91236999Y-81398400D03*
X91236999Y-79898400D03*
X91236999Y-78398400D03*
X91236999Y-76898400D03*
X91236999Y-75398400D03*
X91236999Y-73898400D03*
X91236999Y-72398400D03*
X91236999Y-70898400D03*
X91236999Y-69398400D03*
%TD*%
D20*
%TO.C,C8*%
X76037500Y-84000000D03*
X73962500Y-84000000D03*
%TD*%
D21*
%TO.C,R1*%
X78155000Y-90770000D03*
X76155000Y-90770000D03*
%TD*%
D11*
%TO.C,C1*%
X95000000Y-83462500D03*
X95000000Y-85537500D03*
%TD*%
D21*
%TO.C,R2*%
X98000000Y-71500000D03*
X96000000Y-71500000D03*
%TD*%
D22*
%TO.C,U3*%
X61374999Y-69400001D03*
X66625001Y-69400001D03*
X61374999Y-72599999D03*
X66625001Y-72599999D03*
%TD*%
D23*
%TO.C,C2*%
X99500000Y-85537500D03*
X99500000Y-83462500D03*
%TD*%
D15*
%TO.C,C7*%
X61425000Y-75000000D03*
X63500000Y-75000000D03*
%TD*%
%TO.C,C6*%
X99925000Y-88000000D03*
X102000000Y-88000000D03*
%TD*%
D24*
%TO.C,U1*%
X98250315Y-74506100D03*
X97750189Y-74506100D03*
X97250063Y-74506100D03*
X96749937Y-74506100D03*
X96249811Y-74506100D03*
X95749685Y-74506100D03*
D25*
X95006100Y-75249685D03*
X95006100Y-75749811D03*
X95006100Y-76249937D03*
X95006100Y-76750063D03*
X95006100Y-77250189D03*
X95006100Y-77750315D03*
D24*
X95749685Y-78493900D03*
X96249811Y-78493900D03*
X96749937Y-78493900D03*
X97250063Y-78493900D03*
X97750189Y-78493900D03*
X98250315Y-78493900D03*
D25*
X98993900Y-77750315D03*
X98993900Y-77250189D03*
X98993900Y-76750063D03*
X98993900Y-76249937D03*
X98993900Y-75749811D03*
X98993900Y-75249685D03*
D26*
X97000000Y-76500000D03*
%TD*%
D20*
%TO.C,C5*%
X98037500Y-88000000D03*
X95962500Y-88000000D03*
%TD*%
M02*
